 <svg  version="1.0" xmlns="http://www.w3.org/2000/svg"  width="300.000000pt" height="300.000000pt" viewBox="0 0 300.000000 300.000000"  preserveAspectRatio="xMidYMid meet">  <g transform="translate(0.000000,300.000000) scale(0.100000,-0.100000)" fill="#000000" stroke="none"> <path d="M0 1500 l0 -1500 1500 0 1500 0 0 1500 0 1500 -1500 0 -1500 0 0 -1500z m1966 1091 c2 -2 13 4 24 14 21 19 29 8 8 -13 -17 -17 -6 -23 54 -32 52 -7 52 -8 13 -10 -22 -1 -51 -5 -64 -9 -21 -6 -22 -8 -7 -20 25 -21 19 -33 -9 -15 -25 16 -25 16 -26 -17 -1 -19 -5 -45 -9 -59 -6 -20 -8 -14 -9 27 -1 56 -11 72 -31 48 -7 -8 -17 -15 -23 -15 -5 0 -2 9 8 20 23 26 18 30 -47 40 -43 6 -46 8 -18 9 19 1 45 4 58 7 22 6 22 7 6 33 l-17 26 25 -17 c14 -9 28 -14 32 -11 3 4 7 29 7 57 l2 51 10 -55 c5 -30 12 -57 13 -59z m-435 -332 c-52 -97 -81 -202 -88 -320 -24 -402 222 -743 606 -840 120 -30 315 -24 414 13 78 30 78 29 24 -60 -107 -178 -288 -315 -494 -374 -105 -30 -312 -32 -420 -4 -40 10 -73 19 -73 20 0 1 9 19 20 41 24 46 27 130 6 178 -7 18 -31 50 -54 71 -26 24 -43 51 -47 73 -9 48 -88 128 -140 142 -50 14 -80 14 -128 0 -35 -9 -40 -8 -76 22 -21 18 -60 44 -87 58 -61 33 -66 50 -66 231 0 105 4 152 20 211 62 230 203 416 405 534 46 27 208 88 214 81 2 -2 -14 -37 -36 -77z m-566 -1033 c47 -21 85 -54 118 -100 14 -19 15 -19 61 4 58 27 119 24 166 -10 33 -23 69 -88 70 -125 0 -11 15 -29 32 -40 51 -33 70 -67 70 -125 0 -56 -16 -87 -66 -124 -27 -20 -39 -21 -426 -21 -390 0 -399 0 -427 21 -87 65 -86 190 3 249 25 16 32 31 41 78 33 169 207 264 358 193z"/> </g> </svg> 