<?xml version="1.0" encoding="UTF-8"?>
<svg version="1.1" xmlns="http://www.w3.org/2000/svg" width="2048" height="2048">
<path d="M0 0 C0.85125458 0.00403839 1.70250916 0.00807678 2.57955933 0.01223755 C15.05071767 0.09542653 26.52515238 0.76237272 38.5 4.4375 C40.75362432 5.07781603 43.00755824 5.71704291 45.26171875 6.35546875 C66.69085765 12.58276406 86.74424922 21.13732233 106.5 31.4375 C107.17691895 31.78635254 107.85383789 32.13520508 108.55126953 32.49462891 C122.50498482 39.68956383 136.54043159 47.0424227 149.0078125 56.6484375 C151.47709099 58.42105435 154.037743 59.89299246 156.68847656 61.375 C159.70040223 63.14156341 162.49483492 65.19237874 165.3125 67.25 C166.52950375 68.13212352 167.7469552 69.01362971 168.96484375 69.89453125 C169.85598877 70.53962646 169.85598877 70.53962646 170.76513672 71.19775391 C174.06372966 73.55495274 177.43486151 75.8087257 180.8046875 78.0625 C181.36414062 78.51625 181.92359375 78.97 182.5 79.4375 C182.5 80.0975 182.5 80.7575 182.5 81.4375 C183.180625 81.664375 183.86125 81.89125 184.5625 82.125 C190.56520937 84.80706163 194.88455383 88.82205383 199.5 93.4375 C200.90253691 94.35077985 202.30599288 95.26276716 203.71875 96.16015625 C206.98691608 98.50377535 209.85574387 101.32084914 212.81640625 104.03515625 C215.35543851 106.30808906 217.95868929 108.4414799 220.625 110.5625 C226.93918293 115.66758407 232.78013213 121.24622565 238.66796875 126.83203125 C242.57819215 130.53528265 246.59489315 134.09531496 250.6796875 137.60546875 C252.5 139.4375 252.5 139.4375 253.5078125 141.55078125 C254.78505187 143.97954745 256.04278896 144.30900308 258.5 145.4375 C260.421875 147.09375 260.421875 147.09375 262.25 148.9375 C262.86359375 149.5459375 263.4771875 150.154375 264.109375 150.78125 C265.5 152.4375 265.5 152.4375 265.5 154.4375 C266.09151855 154.69926025 266.68303711 154.96102051 267.29248047 155.23071289 C269.62380369 156.5051799 271.02559921 157.79956101 272.8203125 159.74609375 C273.43310059 160.40520752 274.04588867 161.06432129 274.67724609 161.7434082 C275.32000488 162.4468335 275.96276367 163.15025879 276.625 163.875 C277.29225098 164.5971167 277.95950195 165.3192334 278.64697266 166.06323242 C279.98673837 167.51526449 281.323861 168.96974018 282.65820312 170.42675781 C284.22939182 172.14206933 285.80768059 173.85024018 287.390625 175.5546875 C292.19929507 180.77164088 296.74632216 186.13844816 301.1953125 191.6640625 C304.42968443 195.55627279 307.86997692 199.24366593 311.3359375 202.9296875 C313.40632216 205.32894193 314.88573307 207.72259652 316.5 210.4375 C317.800737 211.94541083 319.13515823 213.42485562 320.5 214.875 C323.56108322 218.23717338 325.53722267 221.32501417 327.5 225.4375 C328.21671875 226.12328125 328.9334375 226.8090625 329.671875 227.515625 C333.44057655 231.17598745 336.16478663 235.5825936 339.0625 239.9375 C342.39743438 244.91512777 345.72394178 249.7800735 349.5 254.4375 C352.5 259.90178571 352.5 259.90178571 352.5 262.4375 C353.16 262.4375 353.82 262.4375 354.5 262.4375 C356.13312727 264.97218638 357.6451307 267.5023026 359.125 270.125 C360.02996978 271.70125654 360.93623234 273.27677151 361.84375 274.8515625 C362.29363281 275.6343457 362.74351563 276.41712891 363.20703125 277.22363281 C364.94319673 280.19635723 366.78006882 283.09350127 368.625 286 C372.70116745 292.571276 376.11621479 299.40755048 379.4831543 306.35913086 C380.62480333 308.69259022 381.7970083 311.00963936 382.96875 313.328125 C397.1549805 341.69249346 408.62618521 373.72025152 408.79516602 405.66796875 C408.80661335 407.16676326 408.82694863 408.66551937 408.85668945 410.1640625 C409.26113439 430.62581307 403.89354111 447.32006967 389.52734375 462.3984375 C388.85832031 463.07132812 388.18929688 463.74421875 387.5 464.4375 C386.63375 465.324375 385.7675 466.21125 384.875 467.125 C383.699375 468.2696875 383.699375 468.2696875 382.5 469.4375 C381.33197596 470.60280771 380.16541555 471.76958356 379 472.9375 C368.16666667 483.77083333 357.33333333 494.60416667 346.5 505.4375 C345.90832031 506.05238281 345.31664062 506.66726563 344.70703125 507.30078125 C344.08183594 507.94402344 343.45664063 508.58726562 342.8125 509.25 C342.23113281 509.85457031 341.64976563 510.45914062 341.05078125 511.08203125 C339.5 512.4375 339.5 512.4375 337.5 512.4375 C337.12875 513.29601562 337.12875 513.29601562 336.75 514.171875 C335.30683801 516.78760611 333.61783778 518.58523456 331.5 520.6875 C330.79875 521.39390625 330.0975 522.1003125 329.375 522.828125 C327.5 524.4375 327.5 524.4375 325.5 524.4375 C325.12875 525.29601562 325.12875 525.29601562 324.75 526.171875 C323.30683801 528.78760611 321.61783778 530.58523456 319.5 532.6875 C318.79875 533.39390625 318.0975 534.1003125 317.375 534.828125 C315.5 536.4375 315.5 536.4375 313.5 536.4375 C313.12875 537.29601562 313.12875 537.29601562 312.75 538.171875 C311.30683801 540.78760611 309.61783778 542.58523456 307.5 544.6875 C306.79875 545.39390625 306.0975 546.1003125 305.375 546.828125 C303.5 548.4375 303.5 548.4375 301.5 548.4375 C301.12875 549.29601562 301.12875 549.29601562 300.75 550.171875 C299.30683801 552.78760611 297.61783778 554.58523456 295.5 556.6875 C294.79875 557.39390625 294.0975 558.1003125 293.375 558.828125 C291.5 560.4375 291.5 560.4375 289.5 560.4375 C289.12875 561.29601562 289.12875 561.29601562 288.75 562.171875 C287.30683801 564.78760611 285.61783778 566.58523456 283.5 568.6875 C282.79875 569.39390625 282.0975 570.1003125 281.375 570.828125 C279.5 572.4375 279.5 572.4375 277.5 572.4375 C277.23832031 573.02660156 276.97664063 573.61570312 276.70703125 574.22265625 C275.4357725 576.55535434 274.09769469 578.04104368 272.1875 579.875 C271.56230469 580.48214844 270.93710938 581.08929687 270.29296875 581.71484375 C269.70128906 582.28332031 269.10960937 582.85179687 268.5 583.4375 C267.675 584.2625 266.85 585.0875 266 585.9375 C253.16666667 598.77083333 240.33333333 611.60416667 227.5 624.4375 C226.90832031 625.05238281 226.31664062 625.66726563 225.70703125 626.30078125 C225.08183594 626.94402344 224.45664063 627.58726562 223.8125 628.25 C223.23113281 628.85457031 222.64976563 629.45914063 222.05078125 630.08203125 C220.5 631.4375 220.5 631.4375 218.5 631.4375 C216.2888481 635.46960052 216.67204687 638.36999558 217.22680664 642.82202148 C219.24319944 662.12641476 217.34681655 680.62842419 209.5 698.4375 C209.02240234 699.55898437 209.02240234 699.55898437 208.53515625 700.703125 C205.03975935 708.32399035 199.54017288 714.69933576 193.5 720.4375 C192.3306296 721.60145665 191.16415501 722.76832708 190 723.9375 C166 747.9375 166 747.9375 164.17578125 749.7578125 C162.83680226 751.09991265 161.51004905 752.45420638 160.1875 753.8125 C157.72941018 756.21342494 155.20085193 758.47718947 152.625 760.75 C148.78072829 764.18299747 145.33446334 767.74178516 142.0078125 771.671875 C139.96518414 774.06376106 137.75085394 776.24154494 135.5 778.4375 C134.16530264 779.76946791 132.83208781 781.10292231 131.5 782.4375 C35 878.9375 35 878.9375 33.17578125 880.7578125 C31.83680226 882.09991265 30.51004905 883.45420638 29.1875 884.8125 C26.72941018 887.21342494 24.20085193 889.47718947 21.625 891.75 C17.78072829 895.18299747 14.33446334 898.74178516 11.0078125 902.671875 C8.96518414 905.06376106 6.75085394 907.24154494 4.5 909.4375 C3.16530264 910.76946791 1.83208781 912.10292231 0.5 913.4375 C-96 1009.9375 -96 1009.9375 -97.8203125 1011.75390625 C-99.18140407 1013.11816315 -100.53013533 1014.49474416 -101.875 1015.875 C-104.14851242 1018.09438117 -106.47730959 1020.1682215 -108.875 1022.25 C-112.57481761 1025.50116863 -115.77878407 1028.94633619 -118.953125 1032.703125 C-120.9200361 1034.90844957 -123.19490103 1036.59342083 -125.5 1038.4375 C-126.68519877 1039.75438753 -127.85026716 1041.08953736 -129 1042.4375 C-131.62575695 1045.51597367 -134.33865658 1047.90842526 -137.5 1050.4375 C-138.68519877 1051.75438753 -139.85026716 1053.08953736 -141 1054.4375 C-143.62575695 1057.51597367 -146.33865658 1059.90842526 -149.5 1062.4375 C-150.68519877 1063.75438753 -151.85026716 1065.08953736 -153 1066.4375 C-155.62575695 1069.51597367 -158.33865658 1071.90842526 -161.5 1074.4375 C-162.68519877 1075.75438753 -163.85026716 1077.08953736 -165 1078.4375 C-167.62575695 1081.51597367 -170.33865658 1083.90842526 -173.5 1086.4375 C-174.68519877 1087.75438753 -175.85026716 1089.08953736 -177 1090.4375 C-179.62575695 1093.51597367 -182.33865658 1095.90842526 -185.5 1098.4375 C-186.68519877 1099.75438753 -187.85026716 1101.08953736 -189 1102.4375 C-191.62575695 1105.51597367 -194.33865658 1107.90842526 -197.5 1110.4375 C-198.68519877 1111.75438753 -199.85026716 1113.08953736 -201 1114.4375 C-203.62575695 1117.51597367 -206.33865658 1119.90842526 -209.5 1122.4375 C-210.68519877 1123.75438753 -211.85026716 1125.08953736 -213 1126.4375 C-215.62575695 1129.51597367 -218.33865658 1131.90842526 -221.5 1134.4375 C-222.68519877 1135.75438753 -223.85026716 1137.08953736 -225 1138.4375 C-227.62575695 1141.51597367 -230.33865658 1143.90842526 -233.5 1146.4375 C-235.31821133 1148.41985541 -237.06682453 1150.45303381 -238.81640625 1152.49609375 C-240.93147454 1154.9350472 -243.18947914 1157.1833333 -245.5 1159.4375 C-246.83469736 1160.76946791 -248.16791219 1162.10292231 -249.5 1163.4375 C-346 1259.9375 -346 1259.9375 -347.82421875 1261.7578125 C-349.16319774 1263.09991265 -350.48995095 1264.45420638 -351.8125 1265.8125 C-354.27058982 1268.21342494 -356.79914807 1270.47718947 -359.375 1272.75 C-363.21927171 1276.18299747 -366.66553666 1279.74178516 -369.9921875 1283.671875 C-372.03481586 1286.06376106 -374.24914606 1288.24154494 -376.5 1290.4375 C-377.83469736 1291.76946791 -379.16791219 1293.10292231 -380.5 1294.4375 C-477 1390.9375 -477 1390.9375 -478.82421875 1392.7578125 C-480.16319774 1394.09991265 -481.48995095 1395.45420638 -482.8125 1396.8125 C-485.27058982 1399.21342494 -487.79914807 1401.47718947 -490.375 1403.75 C-494.21927171 1407.18299747 -497.66553666 1410.74178516 -500.9921875 1414.671875 C-503.03481586 1417.06376106 -505.24914606 1419.24154494 -507.5 1421.4375 C-508.83469736 1422.76946791 -510.16791219 1424.10292231 -511.5 1425.4375 C-596 1509.9375 -596 1509.9375 -597.82421875 1511.7578125 C-599.16319774 1513.09991265 -600.48995095 1514.45420638 -601.8125 1515.8125 C-604.27058982 1518.21342494 -606.79914807 1520.47718947 -609.375 1522.75 C-613.23964805 1526.19545145 -616.65601486 1529.7846132 -619.98828125 1533.73828125 C-621.94009172 1535.93217674 -624.20949759 1537.60509807 -626.5 1539.4375 C-628.31821133 1541.41985541 -630.06682453 1543.45303381 -631.81640625 1545.49609375 C-633.93147454 1547.9350472 -636.18947914 1550.1833333 -638.5 1552.4375 C-639.83469736 1553.76946791 -641.16791219 1555.10292231 -642.5 1556.4375 C-727 1640.9375 -727 1640.9375 -728.82421875 1642.7578125 C-730.16319774 1644.09991265 -731.48995095 1645.45420638 -732.8125 1646.8125 C-735.27058982 1649.21342494 -737.79914807 1651.47718947 -740.375 1653.75 C-744.21927171 1657.18299747 -747.66553666 1660.74178516 -750.9921875 1664.671875 C-753.03481586 1667.06376106 -755.24914606 1669.24154494 -757.5 1671.4375 C-758.83469736 1672.76946791 -760.16791219 1674.10292231 -761.5 1675.4375 C-772.5 1686.4375 -783.5 1697.4375 -794.5 1708.4375 C-795.09167969 1709.04078125 -795.68335938 1709.6440625 -796.29296875 1710.265625 C-797.23076172 1711.21695312 -797.23076172 1711.21695312 -798.1875 1712.1875 C-798.76886719 1712.78046875 -799.35023438 1713.3734375 -799.94921875 1713.984375 C-801.5 1715.4375 -801.5 1715.4375 -803.5 1716.4375 C-803.17 1717.4275 -802.84 1718.4175 -802.5 1719.4375 C-818.97929522 1727.39701891 -818.97929522 1727.39701891 -827.50390625 1730.31640625 C-831.5422702 1731.82750202 -835.4465151 1733.60070136 -839.375 1735.375 C-845.59005673 1738.18020718 -851.82920324 1740.76823757 -858.21875 1743.15625 C-862.77613341 1744.93579971 -867.22832588 1746.93365082 -871.69750977 1748.92211914 C-875.44508739 1750.57701689 -879.18818668 1752.09617013 -883.0625 1753.4375 C-888.257097 1755.24738221 -893.13860158 1757.57215718 -898.09399414 1759.94140625 C-901.3523285 1761.48432462 -904.54991855 1762.88945639 -908 1763.9375 C-911.94753185 1765.14592812 -915.59877316 1766.84235272 -919.3125 1768.625 C-926.14397535 1771.89664514 -933.10304777 1774.74131906 -940.14770508 1777.51953125 C-946.26555089 1779.93402227 -952.31689498 1782.46169572 -958.3515625 1785.078125 C-961.34844767 1786.37206549 -964.35780055 1787.62929299 -967.375 1788.875 C-971.43417013 1790.55503036 -975.46042409 1792.29672535 -979.4765625 1794.07617188 C-984.56422662 1796.32941638 -989.61449782 1798.54877344 -994.875 1800.375 C-1000.65052409 1802.3929542 -1006.16843901 1804.92653385 -1011.73901367 1807.44287109 C-1016.17742047 1809.43725399 -1020.62509761 1811.30105361 -1025.1875 1813 C-1031.23866585 1815.25675591 -1036.99505646 1817.96482925 -1042.796875 1820.7890625 C-1045.43730786 1822.02355524 -1048.07962429 1822.9913996 -1050.85546875 1823.87890625 C-1055.77669151 1825.46397227 -1060.38234243 1827.5666353 -1065.0625 1829.75 C-1072.04071703 1832.95583823 -1079.04546163 1835.86415139 -1086.26391602 1838.47973633 C-1090.10549466 1839.88118748 -1093.67795266 1841.46440659 -1097.27734375 1843.38671875 C-1100.45783955 1844.89032748 -1103.75920613 1846.04943883 -1107.0625 1847.25 C-1113.28520629 1849.5158412 -1119.24847647 1852.11178955 -1125.21630859 1854.97631836 C-1128.65957263 1856.61633495 -1132.08039987 1858.07642208 -1135.6875 1859.3125 C-1141.07246024 1861.17188089 -1146.19821753 1863.51038554 -1151.375 1865.875 C-1157.94267769 1868.87356386 -1164.51542351 1871.67344903 -1171.28515625 1874.19140625 C-1175.84078978 1875.95719859 -1180.29321991 1877.93926085 -1184.75952148 1879.91796875 C-1189.13414066 1881.85258031 -1193.53709797 1883.67358748 -1197.99291992 1885.41430664 C-1200.55900062 1886.46157942 -1203.0617741 1887.60366917 -1205.57421875 1888.7734375 C-1212.24041971 1891.81947536 -1219.05036392 1894.42906949 -1225.89453125 1897.04296875 C-1231.69071143 1899.27830211 -1237.35540176 1901.69474573 -1242.99511719 1904.29931641 C-1246.24943542 1905.77803294 -1249.54203651 1907.08300853 -1252.875 1908.375 C-1258.80432283 1910.69758437 -1264.57005171 1913.26740503 -1270.3046875 1916.04296875 C-1272.80312819 1917.13336401 -1275.18742199 1918.01290703 -1277.7734375 1918.83984375 C-1282.77970442 1920.46402232 -1287.4818341 1922.59731666 -1292.25 1924.8125 C-1298.85745754 1927.83697202 -1305.47162164 1930.65715721 -1312.28515625 1933.19140625 C-1316.84599239 1934.95921516 -1321.30332765 1936.9439929 -1325.77490234 1938.92456055 C-1329.28495282 1940.47654599 -1332.79736046 1941.98335364 -1336.375 1943.375 C-1341.94731387 1945.55094599 -1347.38038937 1948.04259471 -1352.81787109 1950.53295898 C-1356.48425277 1952.19013767 -1360.11515142 1953.68446361 -1363.94921875 1954.91015625 C-1368.89811965 1956.50296143 -1373.54018483 1958.6244251 -1378.25 1960.8125 C-1384.86123959 1963.8387032 -1391.47908899 1966.66049462 -1398.296875 1969.1953125 C-1402.0845499 1970.6641913 -1405.78808469 1972.28844174 -1409.5 1973.9375 C-1415.32421004 1976.52373646 -1421.19327354 1978.88280922 -1427.16015625 1981.125 C-1430.9709751 1982.62258495 -1434.69972945 1984.26799223 -1438.4375 1985.9375 C-1443.48023301 1988.18936607 -1448.52016195 1990.20674792 -1453.75 1992 C-1459.31710119 1993.92099746 -1464.41156709 1996.31518499 -1469.62890625 1999.03125 C-1473.2872378 2000.82308586 -1477.03950973 2002.1233072 -1480.8828125 2003.45703125 C-1483.3691634 2004.38848509 -1485.6469991 2005.46214832 -1488 2006.6875 C-1492.7335059 2009.13663992 -1497.58293959 2011.20471158 -1502.5 2013.25 C-1508.93051713 2015.92616382 -1515.32863841 2018.65749911 -1521.6875 2021.5 C-1522.43209473 2021.83233643 -1523.17668945 2022.16467285 -1523.94384766 2022.50708008 C-1526.1295193 2023.48324474 -1528.31477563 2024.46033458 -1530.5 2025.4375 C-1539.13873811 2029.29994233 -1547.81549812 2032.97988247 -1556.625 2036.4375 C-1563.88870705 2039.28877191 -1570.84954033 2042.44885601 -1577.75 2046.08984375 C-1583.72484816 2049.01785883 -1589.64391805 2048.69090685 -1596.1875 2048.75 C-1597.23873047 2048.77900391 -1598.28996094 2048.80800781 -1599.37304688 2048.83789062 C-1611.52794327 2048.93621897 -1619.16914148 2043.9963026 -1628.0625 2036.1875 C-1639.81011767 2022.9337775 -1640.55227399 2011.90679679 -1639.79882812 1994.63476562 C-1639.19330242 1988.1560364 -1636.82926373 1983.00824822 -1633.5 1977.4375 C-1632.82207685 1976.13077857 -1632.1539095 1974.81890222 -1631.5 1973.5 C-1631.03013672 1972.58927734 -1631.03013672 1972.58927734 -1630.55078125 1971.66015625 C-1629.12349781 1968.64110688 -1627.91026184 1965.54322811 -1626.6875 1962.4375 C-1622.27793968 1951.25903587 -1617.38055388 1940.32546707 -1612.33959961 1929.41943359 C-1608.52231052 1921.15871564 -1604.8017534 1912.96196879 -1601.6640625 1904.41796875 C-1600.05079945 1900.2873657 -1598.1379049 1896.31084265 -1596.22998047 1892.3112793 C-1593.61778592 1886.79342491 -1591.2814861 1881.18207095 -1589.00244141 1875.51953125 C-1586.9651366 1870.47810462 -1584.71996512 1865.58168154 -1582.25 1860.734375 C-1581.28119683 1858.45368604 -1581.28119683 1858.45368604 -1582.06640625 1856.140625 C-1582.71298941 1852.10967415 -1581.04165016 1849.05109343 -1579.4375 1845.4375 C-1579.11604004 1844.6856543 -1578.79458008 1843.93380859 -1578.46337891 1843.15917969 C-1576.05413232 1837.56649787 -1573.4856465 1832.04945535 -1570.89453125 1826.5390625 C-1569.49060791 1823.41661115 -1568.26015096 1820.26923972 -1567.0625 1817.0625 C-1565.22246516 1812.14383082 -1563.13749425 1807.42037104 -1560.875 1802.6875 C-1559.03201625 1798.83112791 -1557.24779904 1795.03521042 -1556 1790.9375 C-1554.79158834 1786.9900219 -1553.09550103 1783.33853054 -1551.3125 1779.625 C-1548.3988899 1773.55458798 -1545.8325127 1767.39328642 -1543.375 1761.125 C-1541.0412949 1755.17649218 -1538.6108332 1749.41802402 -1535.6328125 1743.7578125 C-1534.2961879 1741.0200366 -1533.24720719 1738.23129686 -1532.1875 1735.375 C-1529.91373224 1729.27552774 -1527.22567797 1723.44861234 -1524.35424805 1717.61303711 C-1522.66631477 1714.13321424 -1521.206796 1710.70957814 -1520.02734375 1707.0234375 C-1518.45275049 1702.10309777 -1516.36065646 1697.49325085 -1514.1875 1692.8125 C-1511.3978429 1686.71790241 -1508.6930544 1680.61718339 -1506.25 1674.375 C-1504.22146289 1669.20027447 -1502.04565361 1664.13868668 -1499.70703125 1659.09765625 C-1498.44603728 1656.31857245 -1497.27973841 1653.51228353 -1496.125 1650.6875 C-1494.2015374 1646.00929917 -1492.10950607 1641.44052799 -1489.9375 1636.875 C-1487.95015003 1632.68543722 -1486.08256313 1628.51031486 -1484.5625 1624.125 C-1482.58549532 1618.42210187 -1480.11481883 1612.98007922 -1477.63745117 1607.48217773 C-1475.28858654 1602.25360398 -1473.03946046 1596.99497531 -1470.875 1591.6875 C-1466.17215715 1580.15769252 -1461.37104243 1568.65294602 -1456.0625 1557.38671875 C-1453.6687304 1552.29397393 -1451.35927694 1547.25193325 -1449.5 1541.9375 C-1448.12251869 1538.00264559 -1446.53536882 1534.26751217 -1444.75 1530.5 C-1442.12306111 1524.93512443 -1439.81152298 1519.28973846 -1437.5625 1513.5625 C-1434.88942085 1506.7609702 -1432.02800417 1500.11608441 -1428.86352539 1493.5300293 C-1427.19680365 1490.03101744 -1425.75717143 1486.53997433 -1424.5 1482.875 C-1423.00518874 1478.53875871 -1421.09794878 1474.5078277 -1419 1470.4375 C-1416.95634032 1466.46773629 -1415.07117098 1462.54487196 -1413.625 1458.3125 C-1411.77539596 1452.89980592 -1409.43833065 1447.75902837 -1407.0625 1442.5625 C-1404.05145251 1435.97355528 -1401.26683852 1429.37670313 -1398.74609375 1422.58203125 C-1397.03052051 1418.25276335 -1395.02154381 1414.081876 -1393.01513672 1409.8815918 C-1390.91166495 1405.43627012 -1389.19854647 1400.96358718 -1387.59765625 1396.3203125 C-1386.22791017 1392.72290108 -1384.59749367 1389.28339586 -1382.9375 1385.8125 C-1381.07387987 1381.91513673 -1379.25847788 1378.08031537 -1378 1373.9375 C-1376.79158908 1369.99002432 -1375.09551556 1366.33852052 -1373.3125 1362.625 C-1370.41834671 1356.5957077 -1367.87303555 1350.47797065 -1365.4375 1344.25 C-1362.85974932 1337.66550798 -1360.05872735 1331.34736962 -1356.7890625 1325.0703125 C-1355.52955885 1322.49787172 -1354.55433649 1319.95719761 -1353.625 1317.25 C-1351.91899509 1312.29685129 -1349.76787122 1307.65062936 -1347.5 1302.9375 C-1344.89060832 1297.50589811 -1342.57376038 1292.13100925 -1340.6171875 1286.42578125 C-1338.82569405 1281.63384948 -1336.67247532 1277.00601194 -1334.56689453 1272.34545898 C-1332.37129814 1267.46323988 -1330.31408323 1262.55168068 -1328.375 1257.5625 C-1326.16864135 1251.93868367 -1323.62737119 1246.61477612 -1320.859375 1241.25 C-1319.57504152 1238.59275831 -1318.57235364 1235.97970021 -1317.625 1233.1875 C-1312.65919613 1218.99065823 -1306.11287226 1208.07371315 -1294.5 1198.4375 C-1292.93190561 1196.67739405 -1291.43332088 1194.86995474 -1289.9296875 1193.0546875 C-1288.5 1191.4375 -1288.5 1191.4375 -1286.0625 1189.5 C-1283.70592908 1187.6032478 -1281.95437013 1185.72955828 -1280 1183.4375 C-1277.37424305 1180.35902633 -1274.66134342 1177.96657474 -1271.5 1175.4375 C-1270.31480123 1174.12061247 -1269.14973284 1172.78546264 -1268 1171.4375 C-1265.37424305 1168.35902633 -1262.66134342 1165.96657474 -1259.5 1163.4375 C-1258.31480123 1162.12061247 -1257.14973284 1160.78546264 -1256 1159.4375 C-1253.37424305 1156.35902633 -1250.66134342 1153.96657474 -1247.5 1151.4375 C-1246.31480123 1150.12061247 -1245.14973284 1148.78546264 -1244 1147.4375 C-1241.37424305 1144.35902633 -1238.66134342 1141.96657474 -1235.5 1139.4375 C-1234.31480123 1138.12061247 -1233.14973284 1136.78546264 -1232 1135.4375 C-1229.37424305 1132.35902633 -1226.66134342 1129.96657474 -1223.5 1127.4375 C-1221.69189593 1125.42849547 -1219.94502818 1123.37302981 -1218.19140625 1121.31640625 C-1216.16361729 1119.06382775 -1213.86967913 1117.3210911 -1211.5 1115.4375 C-1210.50171091 1114.30828776 -1209.52396221 1113.16072899 -1208.5625 1112 C-1205.83656175 1108.71632503 -1202.78121555 1106.17184629 -1199.5 1103.4375 C-1198.47914468 1102.28903776 -1197.47968065 1101.12128078 -1196.5 1099.9375 C-1193.79852543 1096.67321822 -1190.75777945 1094.15231621 -1187.5 1091.4375 C-1186.47914468 1090.28903776 -1185.47968065 1089.12128078 -1184.5 1087.9375 C-1181.79852543 1084.67321822 -1178.75777945 1082.15231621 -1175.5 1079.4375 C-1173.93161805 1077.67755995 -1172.43336102 1075.8700032 -1170.9296875 1074.0546875 C-1169.5 1072.4375 -1169.5 1072.4375 -1167.0625 1070.5 C-1164.70592908 1068.6032478 -1162.95437013 1066.72955828 -1161 1064.4375 C-1158.37424305 1061.35902633 -1155.66134342 1058.96657474 -1152.5 1056.4375 C-1151.31480123 1055.12061247 -1150.14973284 1053.78546264 -1149 1052.4375 C-1146.37424305 1049.35902633 -1143.66134342 1046.96657474 -1140.5 1044.4375 C-1139.31480123 1043.12061247 -1138.14973284 1041.78546264 -1137 1040.4375 C-1134.37424305 1037.35902633 -1131.66134342 1034.96657474 -1128.5 1032.4375 C-1127.31480123 1031.12061247 -1126.14973284 1029.78546264 -1125 1028.4375 C-1122.37424305 1025.35902633 -1119.66134342 1022.96657474 -1116.5 1020.4375 C-1115.31480123 1019.12061247 -1114.14973284 1017.78546264 -1113 1016.4375 C-1110.37424305 1013.35902633 -1107.66134342 1010.96657474 -1104.5 1008.4375 C-1103.31480123 1007.12061247 -1102.14973284 1005.78546264 -1101 1004.4375 C-1098.37424305 1001.35902633 -1095.66134342 998.96657474 -1092.5 996.4375 C-1090.69189593 994.42849547 -1088.94502818 992.37302981 -1087.19140625 990.31640625 C-1085.16361729 988.06382775 -1082.86967913 986.3210911 -1080.5 984.4375 C-1079.50171091 983.30828776 -1078.52396221 982.16072899 -1077.5625 981 C-1074.83656175 977.71632503 -1071.78121555 975.17184629 -1068.5 972.4375 C-1067.47914468 971.28903776 -1066.47968065 970.12128078 -1065.5 968.9375 C-1062.79852543 965.67321822 -1059.75777945 963.15231621 -1056.5 960.4375 C-1055.47914468 959.28903776 -1054.47968065 958.12128078 -1053.5 956.9375 C-1050.79852543 953.67321822 -1047.75777945 951.15231621 -1044.5 948.4375 C-1042.93161805 946.67755995 -1041.43336102 944.8700032 -1039.9296875 943.0546875 C-1038.5 941.4375 -1038.5 941.4375 -1036.0625 939.5 C-1033.70592908 937.6032478 -1031.95437013 935.72955828 -1030 933.4375 C-1027.37424305 930.35902633 -1024.66134342 927.96657474 -1021.5 925.4375 C-1020.31480123 924.12061247 -1019.14973284 922.78546264 -1018 921.4375 C-1015.37424305 918.35902633 -1012.66134342 915.96657474 -1009.5 913.4375 C-1008.31480123 912.12061247 -1007.14973284 910.78546264 -1006 909.4375 C-1003.37424305 906.35902633 -1000.66134342 903.96657474 -997.5 901.4375 C-996.31480123 900.12061247 -995.14973284 898.78546264 -994 897.4375 C-991.37424305 894.35902633 -988.66134342 891.96657474 -985.5 889.4375 C-984.31480123 888.12061247 -983.14973284 886.78546264 -982 885.4375 C-979.37424305 882.35902633 -976.66134342 879.96657474 -973.5 877.4375 C-971.69189593 875.42849547 -969.94502818 873.37302981 -968.19140625 871.31640625 C-966.16361729 869.06382775 -963.86967913 867.3210911 -961.5 865.4375 C-960.50171091 864.30828776 -959.52396221 863.16072899 -958.5625 862 C-955.83656175 858.71632503 -952.78121555 856.17184629 -949.5 853.4375 C-948.47914468 852.28903776 -947.47968065 851.12128078 -946.5 849.9375 C-943.79852543 846.67321822 -940.75777945 844.15231621 -937.5 841.4375 C-936.47914468 840.28903776 -935.47968065 839.12128078 -934.5 837.9375 C-931.79852543 834.67321822 -928.75777945 832.15231621 -925.5 829.4375 C-924.47914468 828.28903776 -923.47968065 827.12128078 -922.5 825.9375 C-919.79852543 822.67321822 -916.75777945 820.15231621 -913.5 817.4375 C-911.93161805 815.67755995 -910.43336102 813.8700032 -908.9296875 812.0546875 C-907.5 810.4375 -907.5 810.4375 -905.0625 808.5 C-902.70592908 806.6032478 -900.95437013 804.72955828 -899 802.4375 C-896.37424305 799.35902633 -893.66134342 796.96657474 -890.5 794.4375 C-889.31480123 793.12061247 -888.14973284 791.78546264 -887 790.4375 C-884.37424305 787.35902633 -881.66134342 784.96657474 -878.5 782.4375 C-877.31480123 781.12061247 -876.14973284 779.78546264 -875 778.4375 C-872.37424305 775.35902633 -869.66134342 772.96657474 -866.5 770.4375 C-865.31480123 769.12061247 -864.14973284 767.78546264 -863 766.4375 C-860.37424305 763.35902633 -857.66134342 760.96657474 -854.5 758.4375 C-853.31480123 757.12061247 -852.14973284 755.78546264 -851 754.4375 C-848.37424305 751.35902633 -845.66134342 748.96657474 -842.5 746.4375 C-840.69189593 744.42849547 -838.94502818 742.37302981 -837.19140625 740.31640625 C-835.16361729 738.06382775 -832.86967913 736.3210911 -830.5 734.4375 C-829.50171091 733.30828776 -828.52396221 732.16072899 -827.5625 731 C-824.83656175 727.71632503 -821.78121555 725.17184629 -818.5 722.4375 C-817.47914468 721.28903776 -816.47968065 720.12128078 -815.5 718.9375 C-812.79852543 715.67321822 -809.75777945 713.15231621 -806.5 710.4375 C-805.47914468 709.28903776 -804.47968065 708.12128078 -803.5 706.9375 C-800.79852543 703.67321822 -797.75777945 701.15231621 -794.5 698.4375 C-793.47914468 697.28903776 -792.47968065 696.12128078 -791.5 694.9375 C-788.79852543 691.67321822 -785.75777945 689.15231621 -782.5 686.4375 C-780.93161805 684.67755995 -779.43336102 682.8700032 -777.9296875 681.0546875 C-776.5 679.4375 -776.5 679.4375 -774.0625 677.5 C-771.70592908 675.6032478 -769.95437013 673.72955828 -768 671.4375 C-765.37424305 668.35902633 -762.66134342 665.96657474 -759.5 663.4375 C-758.31480123 662.12061247 -757.14973284 660.78546264 -756 659.4375 C-753.37424305 656.35902633 -750.66134342 653.96657474 -747.5 651.4375 C-746.31480123 650.12061247 -745.14973284 648.78546264 -744 647.4375 C-741.37424305 644.35902633 -738.66134342 641.96657474 -735.5 639.4375 C-734.31480123 638.12061247 -733.14973284 636.78546264 -732 635.4375 C-729.37424305 632.35902633 -726.66134342 629.96657474 -723.5 627.4375 C-722.31480123 626.12061247 -721.14973284 624.78546264 -720 623.4375 C-717.37424305 620.35902633 -714.66134342 617.96657474 -711.5 615.4375 C-709.69189593 613.42849547 -707.94502818 611.37302981 -706.19140625 609.31640625 C-704.16361729 607.06382775 -701.86967913 605.3210911 -699.5 603.4375 C-698.50171091 602.30828776 -697.52396221 601.16072899 -696.5625 600 C-693.83656175 596.71632503 -690.78121555 594.17184629 -687.5 591.4375 C-686.47914468 590.28903776 -685.47968065 589.12128078 -684.5 587.9375 C-681.79852543 584.67321822 -678.75777945 582.15231621 -675.5 579.4375 C-674.47914468 578.28903776 -673.47968065 577.12128078 -672.5 575.9375 C-669.79852543 572.67321822 -666.75777945 570.15231621 -663.5 567.4375 C-661.93161805 565.67755995 -660.43336102 563.8700032 -658.9296875 562.0546875 C-657.5 560.4375 -657.5 560.4375 -655.0625 558.5 C-652.70592908 556.6032478 -650.95437013 554.72955828 -649 552.4375 C-646.37424305 549.35902633 -643.66134342 546.96657474 -640.5 544.4375 C-639.31480123 543.12061247 -638.14973284 541.78546264 -637 540.4375 C-634.37424305 537.35902633 -631.66134342 534.96657474 -628.5 532.4375 C-627.31480123 531.12061247 -626.14973284 529.78546264 -625 528.4375 C-622.37424305 525.35902633 -619.66134342 522.96657474 -616.5 520.4375 C-615.31480123 519.12061247 -614.14973284 517.78546264 -613 516.4375 C-610.37424305 513.35902633 -607.66134342 510.96657474 -604.5 508.4375 C-603.31480123 507.12061247 -602.14973284 505.78546264 -601 504.4375 C-598.37424305 501.35902633 -595.66134342 498.96657474 -592.5 496.4375 C-591.31480123 495.12061247 -590.14973284 493.78546264 -589 492.4375 C-586.37424305 489.35902633 -583.66134342 486.96657474 -580.5 484.4375 C-578.68301633 482.45648308 -576.93558737 480.42475939 -575.1875 478.3828125 C-573.07134638 475.94335763 -570.81185587 473.69155947 -568.5 471.4375 C-567.33198224 470.27218599 -566.16541016 469.10542182 -565 467.9375 C-555.83333333 458.77083333 -546.66666667 449.60416667 -537.5 440.4375 C-536.71367188 439.63957031 -535.92734375 438.84164063 -535.1171875 438.01953125 C-532.52469853 435.46186676 -529.84937842 433.04103187 -527.125 430.625 C-523.09383607 426.98936694 -519.46534228 423.25172233 -515.9765625 419.1015625 C-514.03995563 416.91903729 -511.77587369 415.25819895 -509.5 413.4375 C-508.31480123 412.12061247 -507.14973284 410.78546264 -506 409.4375 C-503.37424305 406.35902633 -500.66134342 403.96657474 -497.5 401.4375 C-496.31480123 400.12061247 -495.14973284 398.78546264 -494 397.4375 C-491.37424305 394.35902633 -488.66134342 391.96657474 -485.5 389.4375 C-484.31480123 388.12061247 -483.14973284 386.78546264 -482 385.4375 C-479.37424305 382.35902633 -476.66134342 379.96657474 -473.5 377.4375 C-472.31480123 376.12061247 -471.14973284 374.78546264 -470 373.4375 C-467.37424305 370.35902633 -464.66134342 367.96657474 -461.5 365.4375 C-459.69189593 363.42849547 -457.94502818 361.37302981 -456.19140625 359.31640625 C-454.16361729 357.06382775 -451.86967913 355.3210911 -449.5 353.4375 C-448.50171091 352.30828776 -447.52396221 351.16072899 -446.5625 350 C-443.83656175 346.71632503 -440.78121555 344.17184629 -437.5 341.4375 C-436.47914468 340.28903776 -435.47968065 339.12128078 -434.5 337.9375 C-431.79852543 334.67321822 -428.75777945 332.15231621 -425.5 329.4375 C-424.47914468 328.28903776 -423.47968065 327.12128078 -422.5 325.9375 C-419.79852543 322.67321822 -416.75777945 320.15231621 -413.5 317.4375 C-412.47914468 316.28903776 -411.47968065 315.12128078 -410.5 313.9375 C-407.79852543 310.67321822 -404.75777945 308.15231621 -401.5 305.4375 C-399.93161805 303.67755995 -398.43336102 301.8700032 -396.9296875 300.0546875 C-395.5 298.4375 -395.5 298.4375 -393.0625 296.5 C-390.70592908 294.6032478 -388.95437013 292.72955828 -387 290.4375 C-384.37424305 287.35902633 -381.66134342 284.96657474 -378.5 282.4375 C-377.31480123 281.12061247 -376.14973284 279.78546264 -375 278.4375 C-372.37424305 275.35902633 -369.66134342 272.96657474 -366.5 270.4375 C-365.31480123 269.12061247 -364.14973284 267.78546264 -363 266.4375 C-360.37424305 263.35902633 -357.66134342 260.96657474 -354.5 258.4375 C-353.31480123 257.12061247 -352.14973284 255.78546264 -351 254.4375 C-348.37424305 251.35902633 -345.66134342 248.96657474 -342.5 246.4375 C-341.31480123 245.12061247 -340.14973284 243.78546264 -339 242.4375 C-336.37424305 239.35902633 -333.66134342 236.96657474 -330.5 234.4375 C-328.69189593 232.42849547 -326.94502818 230.37302981 -325.19140625 228.31640625 C-323.16361729 226.06382775 -320.86967913 224.3210911 -318.5 222.4375 C-317.54383811 221.34945371 -316.60796139 220.24341008 -315.6875 219.125 C-312.32300182 215.09792802 -308.54251729 211.76890526 -304.5 208.4375 C-303.91863281 207.93347656 -303.33726563 207.42945313 -302.73828125 206.91015625 C-291.63523784 197.83022704 -274.55330264 190.58319338 -259.9797821 191.59750366 C-258.46655398 191.75148728 -256.95470654 191.91966042 -255.44458008 192.1015625 C-241.49744369 193.67600147 -228.35380397 194.96973534 -216.75537109 185.828125 C-208.83820228 179.14749637 -201.93573034 171.40168954 -195.12493896 163.6237793 C-191.85675151 159.93583315 -188.47487654 156.3553335 -185.09960938 152.765625 C-181.32131293 148.73744154 -177.55679605 144.70156099 -173.87419128 140.58544922 C-173.32183807 139.96941833 -172.76948486 139.35338745 -172.20039368 138.71868896 C-171.16980613 137.56519951 -170.14383565 136.40756253 -169.12329102 135.24517822 C-167.95571824 133.93888509 -166.73286999 132.6823532 -165.5 131.4375 C-164.84 131.4375 -164.18 131.4375 -163.5 131.4375 C-163.12875 130.57898438 -163.12875 130.57898438 -162.75 129.703125 C-161.30683801 127.08739389 -159.61783778 125.28976544 -157.5 123.1875 C-156.79875 122.48109375 -156.0975 121.7746875 -155.375 121.046875 C-153.5 119.4375 -153.5 119.4375 -151.5 119.4375 C-151.2525 118.86515625 -151.005 118.2928125 -150.75 117.703125 C-149.30683801 115.08739389 -147.61783778 113.28976544 -145.5 111.1875 C-144.79875 110.48109375 -144.0975 109.7746875 -143.375 109.046875 C-141.5 107.4375 -141.5 107.4375 -139.5 107.4375 C-139.2525 106.86515625 -139.005 106.2928125 -138.75 105.703125 C-137.30683801 103.08739389 -135.61783778 101.28976544 -133.5 99.1875 C-132.79875 98.48109375 -132.0975 97.7746875 -131.375 97.046875 C-129.5 95.4375 -129.5 95.4375 -127.5 95.4375 C-127.2525 94.86515625 -127.005 94.2928125 -126.75 93.703125 C-125.30683801 91.08739389 -123.61783778 89.28976544 -121.5 87.1875 C-120.79875 86.48109375 -120.0975 85.7746875 -119.375 85.046875 C-117.5 83.4375 -117.5 83.4375 -115.5 83.4375 C-115.2525 82.86515625 -115.005 82.2928125 -114.75 81.703125 C-113.30683801 79.08739389 -111.61783778 77.28976544 -109.5 75.1875 C-108.79875 74.48109375 -108.0975 73.7746875 -107.375 73.046875 C-105.5 71.4375 -105.5 71.4375 -103.5 71.4375 C-103.27325089 70.88805222 -103.04650177 70.33860443 -102.81288147 69.77250671 C-101.10258276 66.7306792 -98.93644382 64.57213481 -96.49389648 62.07739258 C-95.98446503 61.55481873 -95.47503357 61.03224487 -94.95016479 60.49383545 C-93.26304199 58.76732961 -91.56802047 57.04889953 -89.87109375 55.33203125 C-89.28735552 54.74014196 -88.70361729 54.14825268 -88.10219002 53.53842735 C-85.00228539 50.39680531 -81.8958595 47.26179198 -78.78442383 44.1315918 C-75.60718633 40.93241316 -72.4539827 37.71063313 -69.30593777 34.48276234 C-66.85272712 31.97661711 -64.38129041 29.48902087 -61.90504646 27.00565147 C-60.73712333 25.82812577 -59.57582634 24.64398175 -58.4220562 23.45258522 C-41.6311351 6.14934471 -23.76920026 -0.18697758 0 0 Z " fill="#FED368" transform="translate(1639.5,-0.4375)"/>
<path d="M0 0 C1.27688187 0.00605759 1.27688187 0.00605759 2.57955933 0.01223755 C15.05071767 0.09542653 26.52515238 0.76237272 38.5 4.4375 C40.75362432 5.07781603 43.00755824 5.71704291 45.26171875 6.35546875 C66.69085765 12.58276406 86.74424922 21.13732233 106.5 31.4375 C107.17691895 31.78635254 107.85383789 32.13520508 108.55126953 32.49462891 C122.50498482 39.68956383 136.54043159 47.0424227 149.0078125 56.6484375 C151.47709099 58.42105435 154.037743 59.89299246 156.68847656 61.375 C159.70040223 63.14156341 162.49483492 65.19237874 165.3125 67.25 C166.52950375 68.13212352 167.7469552 69.01362971 168.96484375 69.89453125 C169.85598877 70.53962646 169.85598877 70.53962646 170.76513672 71.19775391 C174.06372966 73.55495274 177.43486151 75.8087257 180.8046875 78.0625 C181.36414062 78.51625 181.92359375 78.97 182.5 79.4375 C182.5 80.0975 182.5 80.7575 182.5 81.4375 C183.180625 81.664375 183.86125 81.89125 184.5625 82.125 C190.56520937 84.80706163 194.88455383 88.82205383 199.5 93.4375 C200.90253691 94.35077985 202.30599288 95.26276716 203.71875 96.16015625 C206.98691608 98.50377535 209.85574387 101.32084914 212.81640625 104.03515625 C215.35543851 106.30808906 217.95868929 108.4414799 220.625 110.5625 C226.93918293 115.66758407 232.78013213 121.24622565 238.66796875 126.83203125 C242.57819215 130.53528265 246.59489315 134.09531496 250.6796875 137.60546875 C252.5 139.4375 252.5 139.4375 253.5078125 141.55078125 C254.78505187 143.97954745 256.04278896 144.30900308 258.5 145.4375 C260.421875 147.09375 260.421875 147.09375 262.25 148.9375 C262.86359375 149.5459375 263.4771875 150.154375 264.109375 150.78125 C265.5 152.4375 265.5 152.4375 265.5 154.4375 C266.09151855 154.69926025 266.68303711 154.96102051 267.29248047 155.23071289 C269.62380369 156.5051799 271.02559921 157.79956101 272.8203125 159.74609375 C273.43310059 160.40520752 274.04588867 161.06432129 274.67724609 161.7434082 C275.32000488 162.4468335 275.96276367 163.15025879 276.625 163.875 C277.62587646 164.95817505 277.62587646 164.95817505 278.64697266 166.06323242 C279.98673837 167.51526449 281.323861 168.96974018 282.65820312 170.42675781 C284.22939182 172.14206933 285.80768059 173.85024018 287.390625 175.5546875 C292.19929507 180.77164088 296.74632216 186.13844816 301.1953125 191.6640625 C304.42968443 195.55627279 307.86997692 199.24366593 311.3359375 202.9296875 C313.40632216 205.32894193 314.88573307 207.72259652 316.5 210.4375 C317.800737 211.94541083 319.13515823 213.42485562 320.5 214.875 C323.56108322 218.23717338 325.53722267 221.32501417 327.5 225.4375 C328.21671875 226.12328125 328.9334375 226.8090625 329.671875 227.515625 C333.44057655 231.17598745 336.16478663 235.5825936 339.0625 239.9375 C342.39743438 244.91512777 345.72394178 249.7800735 349.5 254.4375 C352.5 259.90178571 352.5 259.90178571 352.5 262.4375 C353.16 262.4375 353.82 262.4375 354.5 262.4375 C356.13312727 264.97218638 357.6451307 267.5023026 359.125 270.125 C360.02996978 271.70125654 360.93623234 273.27677151 361.84375 274.8515625 C362.29363281 275.6343457 362.74351562 276.41712891 363.20703125 277.22363281 C364.94319673 280.19635723 366.78006882 283.09350127 368.625 286 C372.70116745 292.571276 376.11621479 299.40755048 379.4831543 306.35913086 C380.62480333 308.69259022 381.7970083 311.00963936 382.96875 313.328125 C397.1549805 341.69249346 408.62618521 373.72025152 408.79516602 405.66796875 C408.80661335 407.16676326 408.82694863 408.66551937 408.85668945 410.1640625 C409.26113439 430.62581307 403.89354111 447.32006967 389.52734375 462.3984375 C388.85832031 463.07132812 388.18929687 463.74421875 387.5 464.4375 C386.63375 465.324375 385.7675 466.21125 384.875 467.125 C384.09125 467.888125 383.3075 468.65125 382.5 469.4375 C381.33197596 470.60280771 380.16541555 471.76958356 379 472.9375 C368.16666667 483.77083333 357.33333333 494.60416667 346.5 505.4375 C345.90832031 506.05238281 345.31664062 506.66726563 344.70703125 507.30078125 C344.08183594 507.94402344 343.45664063 508.58726562 342.8125 509.25 C342.23113281 509.85457031 341.64976562 510.45914062 341.05078125 511.08203125 C339.5 512.4375 339.5 512.4375 337.5 512.4375 C337.2525 513.00984375 337.005 513.5821875 336.75 514.171875 C335.30683801 516.78760611 333.61783778 518.58523456 331.5 520.6875 C330.79875 521.39390625 330.0975 522.1003125 329.375 522.828125 C327.5 524.4375 327.5 524.4375 325.5 524.4375 C325.2525 525.00984375 325.005 525.5821875 324.75 526.171875 C323.30683801 528.78760611 321.61783778 530.58523456 319.5 532.6875 C318.79875 533.39390625 318.0975 534.1003125 317.375 534.828125 C315.5 536.4375 315.5 536.4375 313.5 536.4375 C313.2525 537.00984375 313.005 537.5821875 312.75 538.171875 C311.30683801 540.78760611 309.61783778 542.58523456 307.5 544.6875 C306.79875 545.39390625 306.0975 546.1003125 305.375 546.828125 C303.5 548.4375 303.5 548.4375 301.5 548.4375 C301.2525 549.00984375 301.005 549.5821875 300.75 550.171875 C299.30683801 552.78760611 297.61783778 554.58523456 295.5 556.6875 C294.79875 557.39390625 294.0975 558.1003125 293.375 558.828125 C291.5 560.4375 291.5 560.4375 289.5 560.4375 C289.2525 561.00984375 289.005 561.5821875 288.75 562.171875 C287.30683801 564.78760611 285.61783778 566.58523456 283.5 568.6875 C282.79875 569.39390625 282.0975 570.1003125 281.375 570.828125 C279.5 572.4375 279.5 572.4375 277.5 572.4375 C277.23832031 573.02660156 276.97664063 573.61570312 276.70703125 574.22265625 C275.4357725 576.55535434 274.09769469 578.04104368 272.1875 579.875 C271.56230469 580.48214844 270.93710938 581.08929687 270.29296875 581.71484375 C269.40544922 582.56755859 269.40544922 582.56755859 268.5 583.4375 C267.675 584.2625 266.85 585.0875 266 585.9375 C253.16666667 598.77083333 240.33333333 611.60416667 227.5 624.4375 C226.90832031 625.05238281 226.31664062 625.66726563 225.70703125 626.30078125 C225.08183594 626.94402344 224.45664063 627.58726562 223.8125 628.25 C223.23113281 628.85457031 222.64976562 629.45914063 222.05078125 630.08203125 C220.5 631.4375 220.5 631.4375 218.5 631.4375 C216.2888481 635.46960052 216.67204687 638.36999558 217.22680664 642.82202148 C219.24319944 662.12641476 217.34681655 680.62842419 209.5 698.4375 C209.18160156 699.18515625 208.86320312 699.9328125 208.53515625 700.703125 C205.03975935 708.32399035 199.54017288 714.69933576 193.5 720.4375 C192.3306296 721.60145665 191.16415501 722.76832708 190 723.9375 C166 747.9375 166 747.9375 164.17578125 749.7578125 C162.83680226 751.09991265 161.51004905 752.45420638 160.1875 753.8125 C157.72941018 756.21342494 155.20085193 758.47718947 152.625 760.75 C148.78072829 764.18299747 145.33446334 767.74178516 142.0078125 771.671875 C139.96518414 774.06376106 137.75085394 776.24154494 135.5 778.4375 C134.16530264 779.76946791 132.83208781 781.10292231 131.5 782.4375 C35 878.9375 35 878.9375 33.17578125 880.7578125 C31.83680226 882.09991265 30.51004905 883.45420638 29.1875 884.8125 C26.72941018 887.21342494 24.20085193 889.47718947 21.625 891.75 C17.78072829 895.18299747 14.33446334 898.74178516 11.0078125 902.671875 C8.96518414 905.06376106 6.75085394 907.24154494 4.5 909.4375 C3.0611534 910.87365213 1.62373959 912.31124069 0.1875 913.75 C-1.04166667 914.97916667 -2.27083333 916.20833333 -3.5 917.4375 C-4.16 917.1075 -4.82 916.7775 -5.5 916.4375 C-4.89671875 915.55449219 -4.2934375 914.67148437 -3.671875 913.76171875 C1.16207476 906.55367511 4.96429526 899.80532564 7.5 891.4375 C8.0878125 889.890625 8.0878125 889.890625 8.6875 888.3125 C10.87180943 880.58340509 10.66178874 872.46598942 10.625 864.5 C10.62016602 863.40042969 10.61533203 862.30085937 10.61035156 861.16796875 C10.5867224 857.92415669 10.5482348 854.6810334 10.5 851.4375 C10.48743164 850.56722168 10.47486328 849.69694336 10.46191406 848.80029297 C10.23842302 837.6006549 8.59530914 827.19822801 5.5 816.4375 C5.18998047 815.35968262 4.87996094 814.28186523 4.56054688 813.17138672 C0.30428639 798.58275557 -4.29223809 784.28943682 -10.58911133 770.44506836 C-11.20342637 769.09113842 -11.80722927 767.73239593 -12.40112305 766.36938477 C-27.7390055 731.18481473 -48.02453349 698.45837546 -70.5 667.4375 C-71.18964844 666.48101563 -71.87929687 665.52453125 -72.58984375 664.5390625 C-82.98320131 650.17359007 -93.45085897 635.76800379 -105.47265625 622.7109375 C-107.33416541 620.62346479 -109.01708466 618.49110586 -110.6875 616.25 C-115.09919079 610.44351236 -120.19387604 605.25858749 -125.19140625 599.9609375 C-128.73122638 596.2063729 -132.14421552 592.35691753 -135.5 588.4375 C-136.70602271 587.03966976 -137.91439994 585.64386787 -139.125 584.25 C-139.65351562 583.63769531 -140.18203125 583.02539062 -140.7265625 582.39453125 C-142.39754443 580.55056221 -144.12575663 578.7837718 -145.89355469 577.03295898 C-147.96757771 574.97312001 -150.0238721 572.89600106 -152.08203125 570.8203125 C-153.82545173 569.0676396 -155.56894335 567.31503744 -157.3125 565.5625 C-158.60897461 564.25345703 -158.60897461 564.25345703 -159.93164062 562.91796875 C-164.40464849 558.42808161 -168.93613202 554.10124181 -173.74633789 549.97509766 C-176.23269059 547.79508244 -178.51662106 545.44050214 -180.8125 543.0625 C-185.2028204 538.5868635 -189.84877476 534.58925761 -194.75 530.68359375 C-197.59555338 528.35945569 -200.29890326 525.92757356 -203 523.4375 C-208.32637585 518.54237902 -213.87013482 513.97667905 -219.5 509.4375 C-221.29211399 507.95887533 -223.08377801 506.47970512 -224.875 505 C-261.73249907 474.87708645 -302.13027487 449.05907727 -344.5 427.4375 C-345.3657666 426.99365967 -346.2315332 426.54981934 -347.12353516 426.0925293 C-351.59918675 423.82117174 -356.02850697 421.72321871 -360.75 420 C-365.32992624 418.29322842 -369.79050848 416.43711145 -374.25 414.4375 C-380.7777022 411.60786412 -387.37787747 409.56940602 -394.22265625 407.65625 C-397.63903951 406.70061832 -401.00254666 405.63230251 -404.36816406 404.51269531 C-431.44250999 395.63296257 -466.36197135 391.37384254 -492.70019531 404.53710938 C-497.38213715 407.03387349 -501.94443194 409.71876394 -506.5 412.4375 C-507.16 412.7675 -507.82 413.0975 -508.5 413.4375 C-507.04350941 409.95425266 -505.19615118 408.08971544 -502.3125 405.6875 C-498.5179588 402.4228546 -495.27201879 398.9887883 -492.046875 395.171875 C-490.0799639 392.96655043 -487.80509897 391.28157917 -485.5 389.4375 C-484.31480123 388.12061247 -483.14973284 386.78546264 -482 385.4375 C-479.37424305 382.35902633 -476.66134342 379.96657474 -473.5 377.4375 C-472.31480123 376.12061247 -471.14973284 374.78546264 -470 373.4375 C-467.37424305 370.35902633 -464.66134342 367.96657474 -461.5 365.4375 C-459.69189593 363.42849547 -457.94502818 361.37302981 -456.19140625 359.31640625 C-454.16361729 357.06382775 -451.86967913 355.3210911 -449.5 353.4375 C-448.50171091 352.30828776 -447.52396221 351.16072899 -446.5625 350 C-443.83656175 346.71632503 -440.78121555 344.17184629 -437.5 341.4375 C-436.47914468 340.28903776 -435.47968065 339.12128078 -434.5 337.9375 C-431.79852543 334.67321822 -428.75777945 332.15231621 -425.5 329.4375 C-424.47914468 328.28903776 -423.47968065 327.12128078 -422.5 325.9375 C-419.79852543 322.67321822 -416.75777945 320.15231621 -413.5 317.4375 C-412.47914468 316.28903776 -411.47968065 315.12128078 -410.5 313.9375 C-407.79852543 310.67321822 -404.75777945 308.15231621 -401.5 305.4375 C-399.93161805 303.67755995 -398.43336102 301.8700032 -396.9296875 300.0546875 C-395.5 298.4375 -395.5 298.4375 -393.0625 296.5 C-390.70592908 294.6032478 -388.95437013 292.72955828 -387 290.4375 C-384.37424305 287.35902633 -381.66134342 284.96657474 -378.5 282.4375 C-377.31480123 281.12061247 -376.14973284 279.78546264 -375 278.4375 C-372.37424305 275.35902633 -369.66134342 272.96657474 -366.5 270.4375 C-365.31480123 269.12061247 -364.14973284 267.78546264 -363 266.4375 C-360.37424305 263.35902633 -357.66134342 260.96657474 -354.5 258.4375 C-353.31480123 257.12061247 -352.14973284 255.78546264 -351 254.4375 C-348.37424305 251.35902633 -345.66134342 248.96657474 -342.5 246.4375 C-341.31480123 245.12061247 -340.14973284 243.78546264 -339 242.4375 C-336.37424305 239.35902633 -333.66134342 236.96657474 -330.5 234.4375 C-328.69189593 232.42849547 -326.94502818 230.37302981 -325.19140625 228.31640625 C-323.16361729 226.06382775 -320.86967913 224.3210911 -318.5 222.4375 C-317.54383811 221.34945371 -316.60796139 220.24341008 -315.6875 219.125 C-312.32300182 215.09792802 -308.54251729 211.76890526 -304.5 208.4375 C-303.62794922 207.68146484 -303.62794922 207.68146484 -302.73828125 206.91015625 C-291.63523784 197.83022704 -274.55330264 190.58319338 -259.9797821 191.59750366 C-258.46655398 191.75148728 -256.95470654 191.91966042 -255.44458008 192.1015625 C-241.49744369 193.67600147 -228.35380397 194.96973534 -216.75537109 185.828125 C-208.83820228 179.14749637 -201.93573034 171.40168954 -195.12493896 163.6237793 C-191.85675151 159.93583315 -188.47487654 156.3553335 -185.09960938 152.765625 C-181.32131293 148.73744154 -177.55679605 144.70156099 -173.87419128 140.58544922 C-173.32183807 139.96941833 -172.76948486 139.35338745 -172.20039368 138.71868896 C-171.16980613 137.56519951 -170.14383565 136.40756253 -169.12329102 135.24517822 C-167.95571824 133.93888509 -166.73286999 132.6823532 -165.5 131.4375 C-164.84 131.4375 -164.18 131.4375 -163.5 131.4375 C-163.2525 130.86515625 -163.005 130.2928125 -162.75 129.703125 C-161.30683801 127.08739389 -159.61783778 125.28976544 -157.5 123.1875 C-156.79875 122.48109375 -156.0975 121.7746875 -155.375 121.046875 C-153.5 119.4375 -153.5 119.4375 -151.5 119.4375 C-151.12875 118.57898438 -151.12875 118.57898438 -150.75 117.703125 C-149.30683801 115.08739389 -147.61783778 113.28976544 -145.5 111.1875 C-144.79875 110.48109375 -144.0975 109.7746875 -143.375 109.046875 C-141.5 107.4375 -141.5 107.4375 -139.5 107.4375 C-139.12875 106.57898438 -139.12875 106.57898438 -138.75 105.703125 C-137.30683801 103.08739389 -135.61783778 101.28976544 -133.5 99.1875 C-132.79875 98.48109375 -132.0975 97.7746875 -131.375 97.046875 C-129.5 95.4375 -129.5 95.4375 -127.5 95.4375 C-127.12875 94.57898438 -127.12875 94.57898438 -126.75 93.703125 C-125.30683801 91.08739389 -123.61783778 89.28976544 -121.5 87.1875 C-120.79875 86.48109375 -120.0975 85.7746875 -119.375 85.046875 C-117.5 83.4375 -117.5 83.4375 -115.5 83.4375 C-115.12875 82.57898438 -115.12875 82.57898438 -114.75 81.703125 C-113.30683801 79.08739389 -111.61783778 77.28976544 -109.5 75.1875 C-108.79875 74.48109375 -108.0975 73.7746875 -107.375 73.046875 C-105.5 71.4375 -105.5 71.4375 -103.5 71.4375 C-103.15987633 70.61332832 -103.15987633 70.61332832 -102.81288147 69.77250671 C-101.10258276 66.7306792 -98.93644382 64.57213481 -96.49389648 62.07739258 C-95.98446503 61.55481873 -95.47503357 61.03224487 -94.95016479 60.49383545 C-93.26304199 58.76732961 -91.56802047 57.04889953 -89.87109375 55.33203125 C-89.28735552 54.74014196 -88.70361729 54.14825268 -88.10219002 53.53842735 C-85.00228539 50.39680531 -81.8958595 47.26179198 -78.78442383 44.1315918 C-75.60718633 40.93241316 -72.4539827 37.71063313 -69.30593777 34.48276234 C-66.85272712 31.97661711 -64.38129041 29.48902087 -61.90504646 27.00565147 C-60.73712333 25.82812577 -59.57582634 24.64398175 -58.4220562 23.45258522 C-41.6311351 6.14934471 -23.76920026 -0.18697758 0 0 Z " fill="#BFBBAE" transform="translate(1639.5,-0.4375)"/>
<path d="M0 0 C0.33 0 0.66 0 1 0 C0.85304688 1.29550781 0.70609375 2.59101562 0.5546875 3.92578125 C0.19782856 7.12937279 -0.13225362 10.33333598 -0.4296875 13.54296875 C-0.50316406 14.30802734 -0.57664062 15.07308594 -0.65234375 15.86132812 C-0.79885889 17.39202577 -0.93964258 18.92328466 -1.07421875 20.45507812 C-1.67284573 26.52759078 -2.90185107 32.37522918 -4.21972656 38.3293457 C-5.5000883 44.35257434 -6.47121143 50.41971191 -7.4375 56.5 C-7.59466492 57.47799057 -7.59466492 57.47799057 -7.75500488 58.47573853 C-9.62707751 70.14164196 -11.24713484 81.83511038 -12.74389648 93.5546875 C-12.89544189 94.73675781 -13.0469873 95.91882812 -13.203125 97.13671875 C-13.33364258 98.17530029 -13.46416016 99.21388184 -13.59863281 100.28393555 C-13.93873271 102.58540229 -14.41961974 104.75194482 -15 107 C-15.6792505 115.52981881 -14.58688744 121.74800008 -9.4375 128.75 C-4.04715008 134.58626695 3.08058072 135.18007564 10.6875 135.5625 C19.95741861 135.56363089 28.96075374 133.41987168 37.99951172 131.57006836 C48.36972215 129.45567423 58.76635903 127.64664862 69.22531128 126.02618408 C70.93325354 125.76134092 72.64072748 125.49345746 74.34768677 125.22235107 C98.8753891 121.33587152 98.8753891 121.33587152 107 126 C112.4815351 130.2389202 117.0079429 133.83289363 118 141 C118.09289385 143.41524008 118.12997329 145.83297928 118.125 148.25 C118.12757813 149.49265625 118.13015625 150.7353125 118.1328125 152.015625 C118.04181393 154.74558202 117.87909398 157.29137944 117.55078125 159.984375 C116.8007588 166.23812088 116.53065748 172.52500208 116.18432617 178.81100464 C115.50940205 190.93816711 114.62227841 202.95770258 113 215 C109.53921109 236.50374557 109.53921109 236.50374557 115.625 256.6875 C120.80003012 261.72634512 125.61252606 264.31389981 132.94140625 264.2734375 C140.10210012 264.14528977 146.96262709 263.07026491 154 261.8125 C156.70960742 261.34614489 159.42090468 260.89027059 162.1328125 260.4375 C163.19062424 260.26025139 163.19062424 260.26025139 164.26980591 260.079422 C174.68342682 258.35991967 185.15809374 257.04866863 195.625 255.70043945 C202.83806139 254.76221898 209.9177793 253.6934109 217 252 C224.4968173 251.2860174 231.04239905 252.93915881 237.0859375 257.61328125 C242.48611913 262.75142875 245.13797537 267.18417384 245.375 274.75 C245.12786027 285.52529203 242.97575201 296.28506402 240.4921875 306.75170898 C239.95634504 309.19941393 239.53866108 311.64778944 239.13671875 314.12109375 C238.4067913 318.56342613 237.65791407 323.0017423 236.88896179 327.43743896 C236.34956686 330.55469902 235.81740446 333.67317765 235.28564453 336.79174805 C235.0108846 338.39473213 234.73352145 339.9972721 234.45361328 341.59936523 C234.04276749 343.9544177 233.64162357 346.31095766 233.2421875 348.66796875 C233.11721893 349.37132858 232.99225037 350.07468842 232.86349487 350.79936218 C231.20557241 360.73698201 231.49523172 368.58353993 237.0625 377.1875 C240.81498135 381.28826555 246.23351003 384.68194695 251.84060669 385.15542603 C259.82233498 385.2377346 267.68746145 384.26487148 275.59969139 383.33323669 C278.22096421 383.02501862 280.84302176 382.72448851 283.46540833 382.42590332 C290.91509805 381.57625315 298.36314701 380.71259487 305.81079102 379.84521484 C310.38622136 379.31287692 314.96255532 378.78892667 319.53948402 378.26963806 C321.26631252 378.07196445 322.99277974 377.87110386 324.71883202 377.66676331 C355.07827008 374.07301339 355.07827008 374.07301339 363.13671875 379.4453125 C366.21163051 382.01096215 368.69607892 384.72872745 371 388 C371.928125 389.299375 371.928125 389.299375 372.875 390.625 C375.9280523 399.78415691 373.7499975 410.56483544 372.51843262 419.94094849 C370.7115031 433.8012647 369.27797696 447.69573432 368.01745605 461.61547852 C367.84168372 463.55226338 367.66313726 465.48879886 367.48156738 467.42504883 C366.60777625 476.78052064 365.84340498 486.11138952 365.7578125 495.51171875 C365.74659363 496.19617569 365.73537476 496.88063263 365.72381592 497.58583069 C365.74896565 504.40543861 368.00010857 508.59448945 372.38671875 513.57421875 C377.16702876 518.14498093 382.88678513 519.0543858 389.25 519.25 C393.83432298 519.14047693 398.24789499 518.37256944 402.75390625 517.5625 C406.01748286 516.99697048 409.27734337 516.54646339 412.5625 516.125 C421.08568503 515.01672207 429.58160332 513.73658606 438.08154297 512.46362305 C444.11112686 511.56410568 450.13942504 510.70234689 456.1875 509.9375 C461.77168506 509.21880648 467.27021962 508.2034688 472.78930664 507.10742188 C478.78637832 505.95579705 484.80588375 505.28060601 490.88598633 504.734375 C495.20079687 504.31947996 498.91672731 503.40984057 503 502 C504.32 502 505.64 502 507 502 C507 502.66 507 503.32 507 504 C490.52070478 511.95951891 490.52070478 511.95951891 481.99609375 514.87890625 C477.9577298 516.39000202 474.0534849 518.16320136 470.125 519.9375 C463.90994327 522.74270718 457.67079676 525.33073757 451.28125 527.71875 C446.72386659 529.49829971 442.27167412 531.49615082 437.80249023 533.48461914 C434.05491261 535.13951689 430.31181332 536.65867013 426.4375 538 C421.242903 539.80988221 416.36139842 542.13465718 411.40600586 544.50390625 C408.1476715 546.04682462 404.95008145 547.45195639 401.5 548.5 C397.55246815 549.70842812 393.90122684 551.40485272 390.1875 553.1875 C383.35602465 556.45914514 376.39695223 559.30381906 369.35229492 562.08203125 C363.23444911 564.49652227 357.18310502 567.02419572 351.1484375 569.640625 C348.15155233 570.93456549 345.14219945 572.19179299 342.125 573.4375 C338.06582987 575.11753036 334.03957591 576.85922535 330.0234375 578.63867188 C324.93577338 580.89191638 319.88550218 583.11127344 314.625 584.9375 C308.84947591 586.9554542 303.33156099 589.48903385 297.76098633 592.00537109 C293.32257953 593.99975399 288.87490239 595.86355361 284.3125 597.5625 C278.26133415 599.81925591 272.50494354 602.52732925 266.703125 605.3515625 C264.06269214 606.58605524 261.42037571 607.5538996 258.64453125 608.44140625 C253.72330849 610.02647227 249.11765757 612.1291353 244.4375 614.3125 C237.45928297 617.51833823 230.45453837 620.42665139 223.23608398 623.04223633 C219.39450534 624.44368748 215.82204734 626.02690659 212.22265625 627.94921875 C209.04216045 629.45282748 205.74079387 630.61193883 202.4375 631.8125 C196.21479371 634.0783412 190.25152353 636.67428955 184.28369141 639.53881836 C180.84042737 641.17883495 177.41960013 642.63892208 173.8125 643.875 C168.42753976 645.73438089 163.30178247 648.07288554 158.125 650.4375 C151.55732231 653.43606386 144.98457649 656.23594903 138.21484375 658.75390625 C133.65921022 660.51969859 129.20678009 662.50176085 124.74047852 664.48046875 C120.36585934 666.41508031 115.96290203 668.23608748 111.50708008 669.97680664 C108.94099938 671.02407942 106.4382259 672.16616917 103.92578125 673.3359375 C97.25958029 676.38197536 90.44963608 678.99156949 83.60546875 681.60546875 C77.80928857 683.84080211 72.14459824 686.25724573 66.50488281 688.86181641 C63.25056458 690.34053294 59.95796349 691.64550853 56.625 692.9375 C50.69567717 695.26008437 44.92994829 697.82990503 39.1953125 700.60546875 C36.69687181 701.69586401 34.31257801 702.57540703 31.7265625 703.40234375 C26.72029558 705.02652232 22.0181659 707.15981666 17.25 709.375 C10.64254246 712.39947202 4.02837836 715.21965721 -2.78515625 717.75390625 C-7.34599239 719.52171516 -11.80332765 721.5064929 -16.27490234 723.48706055 C-19.78495282 725.03904599 -23.29736046 726.54585364 -26.875 727.9375 C-32.44731387 730.11344599 -37.88038937 732.60509471 -43.31787109 735.09545898 C-46.98425277 736.75263767 -50.61515142 738.24696361 -54.44921875 739.47265625 C-59.39811965 741.06546143 -64.04018483 743.1869251 -68.75 745.375 C-75.36123959 748.4012032 -81.97908899 751.22299462 -88.796875 753.7578125 C-92.5845499 755.2266913 -96.28808469 756.85094174 -100 758.5 C-105.82421004 761.08623646 -111.69327354 763.44530922 -117.66015625 765.6875 C-121.4709751 767.18508495 -125.19972945 768.83049223 -128.9375 770.5 C-133.98023301 772.75186607 -139.02016195 774.76924792 -144.25 776.5625 C-149.81710119 778.48349746 -154.91156709 780.87768499 -160.12890625 783.59375 C-163.7872378 785.38558586 -167.53950973 786.6858072 -171.3828125 788.01953125 C-173.8691634 788.95098509 -176.1469991 790.02464832 -178.5 791.25 C-183.2335059 793.69913992 -188.08293959 795.76721158 -193 797.8125 C-199.43051713 800.48866382 -205.82863841 803.21999911 -212.1875 806.0625 C-212.93209473 806.39483643 -213.67668945 806.72717285 -214.44384766 807.06958008 C-216.6295193 808.04574474 -218.81477563 809.02283458 -221 810 C-229.63873811 813.86244233 -238.31549812 817.54238247 -247.125 821 C-254.38870705 823.85127191 -261.34954033 827.01135601 -268.25 830.65234375 C-274.22484816 833.58035883 -280.14391805 833.25340685 -286.6875 833.3125 C-287.73873047 833.34150391 -288.78996094 833.37050781 -289.87304688 833.40039062 C-302.02794327 833.49871897 -309.66914148 828.5588026 -318.5625 820.75 C-330.31011767 807.4962775 -331.05227399 796.46929679 -330.29882812 779.19726562 C-329.69330242 772.7185364 -327.32926373 767.57074822 -324 762 C-323.32207685 760.69327857 -322.6539095 759.38140222 -322 758.0625 C-321.53013672 757.15177734 -321.53013672 757.15177734 -321.05078125 756.22265625 C-319.62349781 753.20360688 -318.41026184 750.10572811 -317.1875 747 C-312.77793968 735.82153587 -307.88055388 724.88796707 -302.83959961 713.98193359 C-299.02231052 705.72121564 -295.3017534 697.52446879 -292.1640625 688.98046875 C-290.55079945 684.8498657 -288.6379049 680.87334265 -286.72998047 676.8737793 C-284.11778592 671.35592491 -281.7814861 665.74457095 -279.50244141 660.08203125 C-277.4651366 655.04060462 -275.21996512 650.14418154 -272.75 645.296875 C-271.78119683 643.01618604 -271.78119683 643.01618604 -272.56640625 640.703125 C-273.21298941 636.67217415 -271.54165016 633.61359343 -269.9375 630 C-269.45531006 628.87223145 -269.45531006 628.87223145 -268.96337891 627.72167969 C-266.55413232 622.12899787 -263.9856465 616.61195535 -261.39453125 611.1015625 C-259.99060791 607.97911115 -258.76015096 604.83173972 -257.5625 601.625 C-255.72246516 596.70633082 -253.63749425 591.98287104 -251.375 587.25 C-249.53201625 583.39362791 -247.74779904 579.59771042 -246.5 575.5 C-245.29158834 571.5525219 -243.59550103 567.90103054 -241.8125 564.1875 C-238.8988899 558.11708798 -236.3325127 551.95578642 -233.875 545.6875 C-231.5412949 539.73899218 -229.1108332 533.98052402 -226.1328125 528.3203125 C-224.7961879 525.5825366 -223.74720719 522.79379686 -222.6875 519.9375 C-220.41373224 513.83802774 -217.72567797 508.01111234 -214.85424805 502.17553711 C-213.16631477 498.69571424 -211.706796 495.27207814 -210.52734375 491.5859375 C-208.95275049 486.66559777 -206.86065646 482.05575085 -204.6875 477.375 C-201.8978429 471.28040241 -199.1930544 465.17968339 -196.75 458.9375 C-194.72146289 453.76277447 -192.54565361 448.70118668 -190.20703125 443.66015625 C-188.94603728 440.88107245 -187.77973841 438.07478353 -186.625 435.25 C-184.7015374 430.57179917 -182.60950607 426.00302799 -180.4375 421.4375 C-178.45015003 417.24793722 -176.58256313 413.07281486 -175.0625 408.6875 C-173.08549532 402.98460187 -170.61481883 397.54257922 -168.13745117 392.04467773 C-165.78858654 386.81610398 -163.53946046 381.55747531 -161.375 376.25 C-156.67215715 364.72019252 -151.87104243 353.21544602 -146.5625 341.94921875 C-144.1687304 336.85647393 -141.85927694 331.81443325 -140 326.5 C-138.62251869 322.56514559 -137.03536882 318.83001217 -135.25 315.0625 C-132.62306111 309.49762443 -130.31152298 303.85223846 -128.0625 298.125 C-125.38942085 291.3234702 -122.52800417 284.67858441 -119.36352539 278.0925293 C-117.69680365 274.59351744 -116.25717143 271.10247433 -115 267.4375 C-113.50518874 263.10125871 -111.59794878 259.0703277 -109.5 255 C-107.45634032 251.03023629 -105.57117098 247.10737196 -104.125 242.875 C-102.27539596 237.46230592 -99.93833065 232.32152837 -97.5625 227.125 C-94.55145251 220.53605528 -91.76683852 213.93920313 -89.24609375 207.14453125 C-87.53052051 202.81526335 -85.52154381 198.644376 -83.51513672 194.4440918 C-81.41166495 189.99877012 -79.69854647 185.52608718 -78.09765625 180.8828125 C-76.72791017 177.28540108 -75.09749367 173.84589586 -73.4375 170.375 C-71.57387987 166.47763673 -69.75847788 162.64281537 -68.5 158.5 C-67.29158908 154.55252432 -65.59551556 150.90102052 -63.8125 147.1875 C-60.91834671 141.1582077 -58.37303555 135.04047065 -55.9375 128.8125 C-53.35974932 122.22800798 -50.55872735 115.90986962 -47.2890625 109.6328125 C-46.02955885 107.06037172 -45.05433649 104.51969761 -44.125 101.8125 C-42.41899509 96.85935129 -40.26787122 92.21312936 -38 87.5 C-35.39060832 82.06839811 -33.07376038 76.69350925 -31.1171875 70.98828125 C-29.32569405 66.19634948 -27.17247532 61.56851194 -25.06689453 56.90795898 C-22.87129814 52.02573988 -20.81408323 47.11418068 -18.875 42.125 C-16.67079068 36.5066621 -14.13285532 31.18750201 -11.3671875 25.828125 C-9.63643503 22.24793989 -8.37181857 18.57921914 -7.078125 14.82421875 C-5.11990009 9.69452088 -2.54415178 4.85932991 0 0 Z " fill="#E4AA6D" transform="translate(330,1215)"/>
<path d="M0 0 C1.27688187 0.00605759 1.27688187 0.00605759 2.57955933 0.01223755 C15.05071767 0.09542653 26.52515238 0.76237272 38.5 4.4375 C40.75362432 5.07781603 43.00755824 5.71704291 45.26171875 6.35546875 C66.69085765 12.58276406 86.74424922 21.13732233 106.5 31.4375 C107.17691895 31.78635254 107.85383789 32.13520508 108.55126953 32.49462891 C122.50498482 39.68956383 136.54043159 47.0424227 149.0078125 56.6484375 C151.47709099 58.42105435 154.037743 59.89299246 156.68847656 61.375 C159.70040223 63.14156341 162.49483492 65.19237874 165.3125 67.25 C166.52950375 68.13212352 167.7469552 69.01362971 168.96484375 69.89453125 C169.55894043 70.32459473 170.15303711 70.7546582 170.76513672 71.19775391 C174.06372966 73.55495274 177.43486151 75.8087257 180.8046875 78.0625 C181.36414062 78.51625 181.92359375 78.97 182.5 79.4375 C182.5 80.0975 182.5 80.7575 182.5 81.4375 C183.5209375 81.7778125 183.5209375 81.7778125 184.5625 82.125 C190.56520937 84.80706163 194.88455383 88.82205383 199.5 93.4375 C200.90253691 94.35077985 202.30599288 95.26276716 203.71875 96.16015625 C206.98691608 98.50377535 209.85574387 101.32084914 212.81640625 104.03515625 C215.35543851 106.30808906 217.95868929 108.4414799 220.625 110.5625 C226.93918293 115.66758407 232.78013213 121.24622565 238.66796875 126.83203125 C242.57819215 130.53528265 246.59489315 134.09531496 250.6796875 137.60546875 C252.5 139.4375 252.5 139.4375 253.5078125 141.55078125 C254.78505187 143.97954745 256.04278896 144.30900308 258.5 145.4375 C260.421875 147.09375 260.421875 147.09375 262.25 148.9375 C262.86359375 149.5459375 263.4771875 150.154375 264.109375 150.78125 C265.5 152.4375 265.5 152.4375 265.5 154.4375 C266.38727783 154.83014038 266.38727783 154.83014038 267.29248047 155.23071289 C269.62380369 156.5051799 271.02559921 157.79956101 272.8203125 159.74609375 C273.43310059 160.40520752 274.04588867 161.06432129 274.67724609 161.7434082 C275.32000488 162.4468335 275.96276367 163.15025879 276.625 163.875 C277.62587646 164.95817505 277.62587646 164.95817505 278.64697266 166.06323242 C279.98673837 167.51526449 281.323861 168.96974018 282.65820312 170.42675781 C284.22939182 172.14206933 285.80768059 173.85024018 287.390625 175.5546875 C292.19929507 180.77164088 296.74632216 186.13844816 301.1953125 191.6640625 C304.42968443 195.55627279 307.86997692 199.24366593 311.3359375 202.9296875 C313.40632216 205.32894193 314.88573307 207.72259652 316.5 210.4375 C317.800737 211.94541083 319.13515823 213.42485562 320.5 214.875 C323.56108322 218.23717338 325.53722267 221.32501417 327.5 225.4375 C328.21671875 226.12328125 328.9334375 226.8090625 329.671875 227.515625 C333.44057655 231.17598745 336.16478663 235.5825936 339.0625 239.9375 C342.39743438 244.91512777 345.72394178 249.7800735 349.5 254.4375 C352.5 259.90178571 352.5 259.90178571 352.5 262.4375 C353.16 262.4375 353.82 262.4375 354.5 262.4375 C356.13312727 264.97218638 357.6451307 267.5023026 359.125 270.125 C360.02996978 271.70125654 360.93623234 273.27677151 361.84375 274.8515625 C362.29363281 275.6343457 362.74351562 276.41712891 363.20703125 277.22363281 C364.94319673 280.19635723 366.78006882 283.09350127 368.625 286 C372.70116745 292.571276 376.11621479 299.40755048 379.4831543 306.35913086 C380.62480333 308.69259022 381.7970083 311.00963936 382.96875 313.328125 C397.1549805 341.69249346 408.62618521 373.72025152 408.79516602 405.66796875 C408.80661335 407.16676326 408.82694863 408.66551937 408.85668945 410.1640625 C409.26113439 430.62581307 403.89354111 447.32006967 389.52734375 462.3984375 C388.85832031 463.07132812 388.18929687 463.74421875 387.5 464.4375 C386.63375 465.324375 385.7675 466.21125 384.875 467.125 C384.09125 467.888125 383.3075 468.65125 382.5 469.4375 C381.33197596 470.60280771 380.16541555 471.76958356 379 472.9375 C368.16666667 483.77083333 357.33333333 494.60416667 346.5 505.4375 C345.90832031 506.05238281 345.31664062 506.66726563 344.70703125 507.30078125 C344.08183594 507.94402344 343.45664063 508.58726562 342.8125 509.25 C342.23113281 509.85457031 341.64976562 510.45914062 341.05078125 511.08203125 C339.5 512.4375 339.5 512.4375 337.5 512.4375 C337.2525 513.00984375 337.005 513.5821875 336.75 514.171875 C335.30683801 516.78760611 333.61783778 518.58523456 331.5 520.6875 C330.79875 521.39390625 330.0975 522.1003125 329.375 522.828125 C327.5 524.4375 327.5 524.4375 325.5 524.4375 C325.2525 525.00984375 325.005 525.5821875 324.75 526.171875 C323.30683801 528.78760611 321.61783778 530.58523456 319.5 532.6875 C318.79875 533.39390625 318.0975 534.1003125 317.375 534.828125 C315.5 536.4375 315.5 536.4375 313.5 536.4375 C313.2525 537.00984375 313.005 537.5821875 312.75 538.171875 C311.30683801 540.78760611 309.61783778 542.58523456 307.5 544.6875 C306.79875 545.39390625 306.0975 546.1003125 305.375 546.828125 C303.5 548.4375 303.5 548.4375 301.5 548.4375 C301.2525 549.00984375 301.005 549.5821875 300.75 550.171875 C299.30683801 552.78760611 297.61783778 554.58523456 295.5 556.6875 C294.79875 557.39390625 294.0975 558.1003125 293.375 558.828125 C291.5 560.4375 291.5 560.4375 289.5 560.4375 C289.2525 561.00984375 289.005 561.5821875 288.75 562.171875 C287.30683801 564.78760611 285.61783778 566.58523456 283.5 568.6875 C282.79875 569.39390625 282.0975 570.1003125 281.375 570.828125 C279.5 572.4375 279.5 572.4375 277.5 572.4375 C277.23832031 573.02660156 276.97664063 573.61570312 276.70703125 574.22265625 C275.4357725 576.55535434 274.09769469 578.04104368 272.1875 579.875 C271.24970703 580.78572266 271.24970703 580.78572266 270.29296875 581.71484375 C269.40544922 582.56755859 269.40544922 582.56755859 268.5 583.4375 C267.675 584.2625 266.85 585.0875 266 585.9375 C253.16666667 598.77083333 240.33333333 611.60416667 227.5 624.4375 C226.90832031 625.05238281 226.31664062 625.66726563 225.70703125 626.30078125 C225.08183594 626.94402344 224.45664063 627.58726562 223.8125 628.25 C223.23113281 628.85457031 222.64976562 629.45914063 222.05078125 630.08203125 C220.5 631.4375 220.5 631.4375 218.5 631.4375 C217.84 632.7575 217.18 634.0775 216.5 635.4375 C215.51 635.1075 214.52 634.7775 213.5 634.4375 C213.35304688 633.21417969 213.20609375 631.99085938 213.0546875 630.73046875 C211.10653219 615.69582464 207.31166165 601.70694048 201.41796875 587.73046875 C200.37500209 585.12527119 199.53403634 582.48784058 198.6875 579.8125 C196.4017345 572.81064916 193.42869131 566.14720174 190.39941406 559.44287109 C189.78817286 558.08002223 189.18627197 556.71295372 188.59277344 555.34228516 C185.90193595 549.15335894 182.87658741 543.16663921 179.75 537.1875 C179.22067871 536.17333008 178.69135742 535.15916016 178.14599609 534.11425781 C174.73981575 527.64551666 171.16180367 521.38578675 167.234375 515.21875 C165.49396834 512.4278276 163.92171893 509.58959118 162.375 506.6875 C159.70120493 501.71166746 156.68776816 497.09490738 153.5 492.4375 C152.32024761 490.66866108 151.14605967 488.89618899 149.97167969 487.1237793 C144.91093325 479.49321275 139.75701228 471.93461373 134.5 464.4375 C134.10844727 463.87708008 133.71689453 463.31666016 133.31347656 462.73925781 C127.00562432 453.7273142 120.36701133 445.02926146 113.5 436.4375 C112.7884375 435.54160156 112.076875 434.64570313 111.34375 433.72265625 C109.40454997 431.28711336 107.45480962 428.8605275 105.5 426.4375 C104.42298828 425.09751953 104.42298828 425.09751953 103.32421875 423.73046875 C98.94800397 418.32633478 94.43416926 413.10369579 89.74609375 407.96875 C87.42777789 405.35610882 85.24292932 402.66591068 83.0625 399.9375 C79.32988406 395.31895776 75.33389154 391.1330422 71.0546875 387.01953125 C69.04370506 384.98702453 67.18808398 382.94094273 65.33032227 380.77441406 C61.60350883 376.49934908 57.67523847 372.46801732 53.66015625 368.46484375 C52.93436874 367.73809952 52.20858124 367.01135529 51.46080017 366.2625885 C49.93676444 364.73787704 48.41148431 363.2144085 46.88500977 361.69213867 C44.56867537 359.38116109 42.25772922 357.06489229 39.94726562 354.74804688 C38.45604966 353.2574918 36.96452347 351.767247 35.47265625 350.27734375 C34.451968 349.25361916 34.451968 349.25361916 33.41065979 348.20921326 C29.50094959 344.31824663 25.4913161 340.60165251 21.30731201 337.00669861 C18.35496684 334.44332499 15.53125092 331.74488879 12.6875 329.0625 C7.67571482 324.37342816 2.55728991 319.89974768 -2.80078125 315.60546875 C-5.67350033 313.29814735 -8.49327679 310.93481861 -11.3125 308.5625 C-17.36599376 303.51010082 -23.53907279 298.62317419 -29.76513672 293.78564453 C-30.89808687 292.90524055 -32.02997219 292.0234641 -33.16064453 291.14013672 C-41.44385106 284.66942624 -49.88220944 278.45529656 -58.5 272.4375 C-59.21430176 271.93847168 -59.92860352 271.43944336 -60.66455078 270.92529297 C-82.8284668 255.49183054 -105.6554822 241.45003612 -129.625 229 C-130.76324219 228.40848145 -131.90148438 227.81696289 -133.07421875 227.20751953 C-138.43716119 224.44611071 -143.80617678 221.77721923 -149.34130859 219.37866211 C-151.67704097 218.36031238 -153.98672616 217.29381326 -156.296875 216.21875 C-164.54056919 212.40960043 -172.59021411 208.74054466 -181.3828125 206.38671875 C-183.99935952 205.58995067 -186.32822808 204.65219884 -188.828125 203.56640625 C-196.00414912 200.64615004 -203.56900738 199.25977739 -211.125 197.6875 C-212.62126718 197.36930401 -214.11736262 197.05029935 -215.61328125 196.73046875 C-219.24025765 195.95682458 -222.86942672 195.19410866 -226.5 194.4375 C-224.87582304 190.35232394 -221.95036838 187.60618302 -218.88867188 184.56738281 C-218.02986168 183.70331566 -218.02986168 183.70331566 -217.15370178 182.8217926 C-215.2637119 180.9230142 -213.36651702 179.03162809 -211.46875 177.140625 C-210.15331212 175.82384002 -208.83817127 174.50675826 -207.52331543 173.18939209 C-204.76927355 170.43240316 -202.01164986 167.67906091 -199.25146484 164.92822266 C-195.70690886 161.39508329 -192.17143598 157.85301214 -188.63857269 154.30818558 C-185.9262292 151.58863133 -183.20916037 148.87383859 -180.49061584 146.16048431 C-179.18454488 144.85575086 -177.87996717 143.5495209 -176.57688904 142.2417984 C-174.75981842 140.41967305 -172.93650292 138.60404158 -171.11132812 136.79003906 C-170.56996719 136.24462967 -170.02860626 135.69922028 -169.47084045 135.13728333 C-165.72853132 131.4375 -165.72853132 131.4375 -163.5 131.4375 C-163.2525 130.86515625 -163.005 130.2928125 -162.75 129.703125 C-161.30683801 127.08739389 -159.61783778 125.28976544 -157.5 123.1875 C-156.448125 122.12789062 -156.448125 122.12789062 -155.375 121.046875 C-153.5 119.4375 -153.5 119.4375 -151.5 119.4375 C-151.12875 118.57898438 -151.12875 118.57898438 -150.75 117.703125 C-149.30683801 115.08739389 -147.61783778 113.28976544 -145.5 111.1875 C-144.448125 110.12789062 -144.448125 110.12789062 -143.375 109.046875 C-141.5 107.4375 -141.5 107.4375 -139.5 107.4375 C-139.12875 106.57898438 -139.12875 106.57898438 -138.75 105.703125 C-137.30683801 103.08739389 -135.61783778 101.28976544 -133.5 99.1875 C-132.448125 98.12789062 -132.448125 98.12789062 -131.375 97.046875 C-129.5 95.4375 -129.5 95.4375 -127.5 95.4375 C-127.12875 94.57898438 -127.12875 94.57898438 -126.75 93.703125 C-125.30683801 91.08739389 -123.61783778 89.28976544 -121.5 87.1875 C-120.448125 86.12789062 -120.448125 86.12789062 -119.375 85.046875 C-117.5 83.4375 -117.5 83.4375 -115.5 83.4375 C-115.12875 82.57898438 -115.12875 82.57898438 -114.75 81.703125 C-113.30683801 79.08739389 -111.61783778 77.28976544 -109.5 75.1875 C-108.448125 74.12789062 -108.448125 74.12789062 -107.375 73.046875 C-105.5 71.4375 -105.5 71.4375 -103.5 71.4375 C-103.27325089 70.88805222 -103.04650177 70.33860443 -102.81288147 69.77250671 C-101.10258276 66.7306792 -98.93644382 64.57213481 -96.49389648 62.07739258 C-95.98446503 61.55481873 -95.47503357 61.03224487 -94.95016479 60.49383545 C-93.26304199 58.76732961 -91.56802047 57.04889953 -89.87109375 55.33203125 C-88.9954864 54.44419732 -88.9954864 54.44419732 -88.10219002 53.53842735 C-85.00228539 50.39680531 -81.8958595 47.26179198 -78.78442383 44.1315918 C-75.60718633 40.93241316 -72.4539827 37.71063313 -69.30593777 34.48276234 C-66.85272712 31.97661711 -64.38129041 29.48902087 -61.90504646 27.00565147 C-60.73712333 25.82812577 -59.57582634 24.64398175 -58.4220562 23.45258522 C-41.6311351 6.14934471 -23.76920026 -0.18697758 0 0 Z " fill="#FE6E83" transform="translate(1639.5,-0.4375)"/>
<path d="M0 0 C6.95678075 3.92405914 14.74158397 11.07637023 17.46875 18.7734375 C19.00804644 27.10635956 19.23449763 35.96965457 14.71238823 43.36941308 C7.87941444 53.05048759 -1.38484854 61.37858814 -9.75361347 69.72990417 C-10.88870564 70.86634661 -12.02357987 72.00300676 -13.15825883 73.13986176 C-16.25583638 76.24212876 -19.35647513 79.34131971 -22.45765746 82.43998262 C-25.83891061 85.81959296 -29.21726154 89.20210247 -32.59599608 92.58423042 C-38.51098785 98.50436173 -44.42783026 104.42263831 -50.34590721 110.33968544 C-59.14606606 119.13831668 -67.94337373 127.93979458 -76.74015233 136.74180519 C-93.36360189 153.37491584 -109.99046991 170.00460649 -126.61846397 186.63317388 C-139.45401672 199.46918632 -152.28876948 212.30599815 -165.12296104 225.14337158 C-168.81819404 228.83950211 -172.51343089 232.53562878 -176.20866889 236.2317543 C-177.12730764 237.1506141 -178.04594639 238.0694739 -178.99242268 239.01617794 C-204.82226974 264.85217691 -230.65321524 290.68707716 -256.48636341 316.51977539 C-257.46972447 317.50312067 -258.4530855 318.48646597 -259.43644652 319.46981129 C-263.87605505 323.90934644 -268.31567098 328.3488742 -272.75528899 332.78839987 C-274.73496109 334.76803085 -276.71463271 336.74766232 -278.69430427 338.72729384 C-279.68516224 339.71813141 -280.67602052 340.70896868 -281.66687911 341.69980562 C-313.02216288 373.05440865 -344.37343941 404.41301327 -375.72143555 435.77490234 C-383.62536871 443.68233651 -391.52931766 451.58975491 -399.43335438 459.49708557 C-399.92003444 459.98396851 -400.4067145 460.47085145 -400.90814245 460.97248841 C-415.90382316 475.97438234 -430.90072676 490.9750529 -445.89888287 505.97447205 C-446.36962362 506.44525275 -446.84036437 506.91603345 -447.32537 507.40108024 C-458.12164158 518.19824328 -468.91826308 528.99505637 -479.71512526 539.79162884 C-483.40880103 543.48522998 -487.10246384 547.17884408 -490.79611778 550.87246704 C-491.70559791 551.78193551 -492.61507803 552.69140398 -493.55211816 553.6284321 C-508.20607999 568.28236312 -522.85682735 582.93950384 -537.50647055 597.59775207 C-552.21540892 612.31515192 -566.92806619 627.02882589 -581.64452932 641.73870152 C-590.39367155 650.48413881 -599.14001581 659.23235289 -607.88241572 667.98453026 C-613.71610033 673.8241895 -619.55338548 679.66023277 -625.39365867 685.49330271 C-628.72495331 688.82069464 -632.05462293 692.14967044 -635.37993786 695.48303926 C-638.40300556 698.51336496 -641.43061 701.53907837 -644.46195041 704.56112794 C-645.5528299 705.65028137 -646.64202506 706.74112499 -647.72934914 707.83382788 C-649.20397582 709.31526153 -650.68463194 710.79040004 -652.16693908 712.26414299 C-652.98587191 713.08316404 -653.80480474 713.90218509 -654.64855372 714.74602497 C-659.20314623 718.84116656 -662.95979672 721.38549403 -669.125 721.97265625 C-669.125 722.63265625 -669.125 723.29265625 -669.125 723.97265625 C-688.95728229 724.47403417 -688.95728229 724.47403417 -697.16796875 717.8828125 C-702.65128025 712.5308378 -707.59731428 705.70955599 -708.4609375 697.95703125 C-708.63701476 683.37783436 -702.15976251 675.02215655 -692.24102151 664.84028077 C-690.32744198 662.91728301 -688.40906982 661.00005231 -686.48554039 659.08710098 C-685.40916667 658.00924552 -684.33323221 656.93095126 -683.25769424 655.85226184 C-680.30735237 652.89580852 -677.35083872 649.94559631 -674.39326058 646.99638445 C-671.17431413 643.78432775 -667.96119945 640.56644604 -664.74733603 637.34930491 C-659.1159938 631.71382047 -653.48095438 626.08205437 -647.84346962 620.45271492 C-639.46050713 612.08183083 -631.08329429 603.7052104 -622.70724661 595.32740794 C-608.61543919 581.23297337 -594.51898293 567.14319703 -580.41987228 553.05606842 C-566.4567588 539.10479087 -552.49571708 525.15144546 -538.53743362 511.19533539 C-537.66940099 510.32744024 -536.80136836 509.45954509 -535.90703172 508.56535008 C-531.49861079 504.15760583 -527.09022681 499.74982462 -522.68185706 495.34202918 C-491.45466413 464.11903733 -460.22283775 432.90068401 -428.98828125 401.68505859 C-421.4196241 394.12098464 -413.85098321 386.55689443 -406.28240967 378.99273682 C-405.81302678 378.52362782 -405.34364389 378.05451883 -404.86003727 377.57119441 C-383.04383652 355.76767946 -361.23025191 333.96154793 -339.41734302 312.15473976 C-338.00134588 310.73913875 -336.58534761 309.32353887 -335.16934912 307.90793921 C-325.78477704 298.52600689 -316.40025027 289.14402925 -307.01575365 279.76202146 C-287.88547381 260.63681687 -268.75491074 241.51189559 -249.62417603 222.387146 C-248.74421655 221.5074611 -247.86425707 220.6277762 -246.95763216 219.72143419 C-193.69194065 166.4724223 -140.42072449 113.22893758 -87.14831483 59.98664689 C-86.00948137 58.84845424 -84.870648 57.71026149 -83.73181474 56.57206863 C-81.65801394 54.49943409 -79.58420392 52.42680877 -77.51038766 50.35418969 C-76.14809445 48.99266516 -76.14809445 48.99266516 -74.75828016 47.60363507 C-73.97822743 46.82402982 -73.1981747 46.04442457 -72.39448401 45.24119492 C-70.75594142 43.60333485 -69.12060089 41.96226922 -67.48727546 40.3192064 C-65.15031138 37.99779914 -62.7299838 35.82717085 -60.25 33.66015625 C-56.38535195 30.2147048 -52.96898514 26.62554305 -49.63671875 22.671875 C-47.68490828 20.47797951 -45.41550241 18.80505818 -43.125 16.97265625 C-42.07021669 15.73370443 -41.03009772 14.48220702 -40 13.22265625 C-35.73960534 8.22254471 -30.60496176 4.54763896 -25.125 0.97265625 C-24.23748047 0.38097656 -24.23748047 0.38097656 -23.33203125 -0.22265625 C-16.58412093 -2.6829563 -6.78439722 -2.23037059 0 0 Z " fill="#FFB636" transform="translate(1345.125,688.02734375)"/>
<path d="M0 0 C6.93658455 5.88254493 10.48624482 11.24101747 11.53515625 20.3515625 C12.0006825 32.38362551 7.14390086 40.41735286 -0.73828125 48.9765625 C-4.42980162 52.80456452 -8.18874689 56.56336893 -11.95279026 60.31970596 C-13.09174859 61.46001252 -14.23048854 62.60053724 -15.36903104 63.74125898 C-18.49597488 66.8729198 -21.62601212 70.00147262 -24.75656997 73.12952014 C-28.16271466 76.53402918 -31.56596722 79.94142726 -34.96959394 83.34845328 C-40.93449277 89.31850323 -46.90125483 95.28668587 -52.86924362 101.25364685 C-61.7436846 110.12656319 -70.61528064 119.00231999 -79.48633961 127.87861747 C-96.25001368 144.65196414 -113.0171175 161.42187953 -129.78534205 178.19067696 C-142.73016303 191.13595732 -155.67418469 204.08203641 -168.61764336 217.02867889 C-172.34201293 220.75394599 -176.06638637 224.47920924 -179.79076093 228.20447135 C-180.71660977 229.13054123 -181.64245861 230.05661112 -182.59636347 231.01074373 C-208.63840008 257.0589345 -234.68153752 283.10602422 -260.72687626 309.15091324 C-261.71880132 310.14282252 -262.71072636 311.13473183 -263.70265138 312.12664115 C-268.18106996 316.60498635 -272.65949594 321.08332416 -277.13792399 325.56165988 C-279.13495694 327.55865171 -281.13198941 329.55564402 -283.12902182 331.55263639 C-284.12857115 332.55216533 -285.1281208 333.55169396 -286.12767076 334.55122227 C-317.74846528 366.17133624 -349.36525502 397.79544939 -380.97875977 429.42285156 C-388.94701002 437.39460278 -396.91527604 445.36633824 -404.8836298 453.33798599 C-405.37426154 453.82882061 -405.86489328 454.31965522 -406.37039265 454.82536361 C-421.48811675 469.94930106 -436.60706386 485.07201505 -451.72726345 500.19347763 C-452.20185235 500.66810648 -452.67644125 501.14273533 -453.16541163 501.63174687 C-464.05014771 512.51737442 -474.93523371 523.402652 -485.8205604 534.28768897 C-489.54463016 538.01168411 -493.26868697 541.7356922 -496.99273491 545.45970917 C-497.90971679 546.37667939 -498.82669867 547.29364962 -499.77146787 548.23840682 C-514.54838751 563.01529563 -529.32209219 577.79539468 -544.0946937 592.57660022 C-558.9295833 607.41995167 -573.76819232 622.25957677 -588.61060674 637.09540394 C-597.43526919 645.91636134 -606.25713351 654.74009588 -615.07505375 663.56779329 C-620.95921981 669.4579339 -626.84698636 675.34445874 -632.73774101 681.22801005 C-636.09793888 684.58430505 -639.45651155 687.94218449 -642.81072987 691.30445626 C-645.8600733 694.36105729 -648.91395316 697.413047 -651.97156936 700.46137188 C-653.07196992 701.56004627 -654.17068581 702.66041113 -655.26753112 703.76263486 C-656.75497003 705.25687983 -658.24843819 706.74483204 -659.74355751 708.23138642 C-660.56962453 709.05754166 -661.39569154 709.88369689 -662.24679089 710.73488714 C-670.32899032 718.00670629 -677.96876504 719.47668431 -688.55078125 719.29296875 C-695.52242956 718.60093013 -702.09787448 715.29824783 -706.73828125 709.9765625 C-712.32110289 701.86339723 -715.83170713 694.94519842 -714.73828125 684.9765625 C-711.78623189 671.06824941 -699.93207475 662.02171143 -690.26485252 652.37170601 C-689.12216156 651.2273618 -687.97968807 650.0828004 -686.83741033 648.93804371 C-683.70940675 645.80451042 -680.57833089 642.6740632 -677.4467223 639.54413327 C-674.03595431 636.13409966 -670.62807232 632.72118384 -667.21981013 629.30864608 C-660.46504902 622.54632313 -653.70761411 615.78667793 -646.94934959 609.02785649 C-638.85272319 600.93031472 -630.75897717 592.82989621 -622.66527335 584.72943343 C-603.11059384 565.15871328 -583.55085394 545.59305392 -563.99054709 526.02795841 C-554.73932802 516.77440249 -545.488742 507.52021383 -536.23823257 498.26594852 C-505.07195939 467.08704546 -473.90477934 435.90904943 -442.7338879 404.73476339 C-441.24519307 403.24590632 -439.7564999 401.75704759 -438.26780724 400.26818835 C-435.28228075 397.28232806 -432.29675259 394.29646943 -429.31122434 391.31061089 C-425.81599924 387.81499889 -422.3207755 384.31938554 -418.82555423 380.82376972 C-417.82519976 379.82330282 -416.82484478 378.82283643 -415.82448931 377.82237054 C-383.67437879 345.66870814 -351.53004354 313.50928162 -319.38980651 281.34574999 C-296.28531466 258.22451925 -273.18019252 235.10392089 -250.06958961 211.98879814 C-249.59447256 211.5135876 -249.1193555 211.03837705 -248.62984095 210.54876619 C-237.73294635 199.64976215 -226.83554049 188.75126944 -215.93778288 177.85312831 C-212.20950518 174.12467915 -208.48124946 170.396208 -204.7530098 166.66772079 C-203.83500519 165.74966042 -202.91700059 164.83160005 -201.97117766 163.88571966 C-187.18017921 149.09356923 -172.39412754 134.29648355 -157.60982108 119.49764503 C-142.76354288 104.6370257 -127.91173867 89.78194721 -113.05426095 74.93252487 C-104.22153119 66.1042618 -95.39301498 57.27183296 -86.57041796 48.43344338 C-80.68243219 42.53574154 -74.78904926 36.64347051 -68.89118542 30.75564707 C-65.52741848 27.39729636 -62.16610153 24.03658774 -58.81131308 20.669266 C-55.76087171 17.60752316 -52.70364044 14.55273759 -49.64078987 11.50340986 C-48.53947369 10.40453413 -47.44067789 9.30312529 -46.34470089 8.19892441 C-33.14914621 -5.08913281 -16.9951535 -12.55847291 0 0 Z " fill="#FFB636" transform="translate(1521.73828125,863.0234375)"/>
<path d="M0 0 C7.85903669 4.748168 12.13939959 11.23069876 15 19.8125 C15.82772756 31.44843931 14.63722802 37.98016132 7.08972043 46.82033068 C6.60225014 47.39291669 6.11477985 47.96550271 5.61253774 48.55543982 C0.46642919 54.53207706 -5.03529677 60.12590619 -10.62302685 65.68720913 C-11.75772578 66.82400046 -12.89198706 67.96122875 -14.02585647 69.09884748 C-17.11954428 72.20026127 -20.21934594 75.29549816 -23.32025473 78.38968984 C-26.70155758 81.76589069 -30.07702499 85.14791777 -33.45326167 88.52918345 C-39.36355598 94.44668287 -45.27753852 100.36047578 -51.19399071 106.27181816 C-59.99182238 115.06207217 -68.78391418 123.85805069 -77.57490319 132.65514726 C-93.27609803 148.36686472 -108.98300022 164.07286667 -124.69234686 179.7764331 C-138.43678342 193.51583727 -152.17935804 207.25710039 -165.920084 221.00021553 C-167.28761209 222.36797278 -167.28761209 222.36797278 -168.68276701 223.76336148 C-172.38359948 227.46481663 -176.08442488 231.16627883 -179.78523866 234.86775266 C-190.12943505 245.21377198 -200.47396681 255.55945595 -210.81877613 265.9048624 C-211.28979771 266.37591127 -211.76081928 266.84696014 -212.24611424 267.33228322 C-227.24861666 282.33560385 -242.25265355 297.33738897 -257.25773907 312.33812618 C-257.74422797 312.82447459 -258.23071687 313.31082299 -258.73194786 313.81190923 C-266.63178662 321.7094582 -274.53169996 329.60693256 -282.4316196 337.50440062 C-313.77453505 368.83759978 -345.11235892 400.17588198 -376.44555664 431.51879883 C-384.34503791 439.42072251 -392.24452932 447.32263603 -400.14409161 455.22447872 C-400.63050682 455.71103483 -401.11692203 456.19759094 -401.6180771 456.69889117 C-416.60797513 471.69310146 -431.59911459 486.68606962 -446.59160328 501.67768955 C-447.2975538 502.38359932 -447.2975538 502.38359932 -448.01776595 503.1037699 C-458.81215553 513.89750649 -469.60692231 524.6908658 -480.40194827 535.48396593 C-484.09509298 539.1764692 -487.7882298 542.86898035 -491.4813633 546.56149483 C-492.39070858 547.47068195 -493.30005385 548.37986908 -494.23695505 549.31660732 C-507.97543647 563.05281276 -521.71144652 576.79148626 -535.44626427 590.5313549 C-551.05773702 606.14854005 -566.67276661 621.76215895 -582.29252657 637.37105571 C-591.03678381 646.10943227 -599.77827225 654.85055724 -608.51582063 663.59564213 C-614.3488086 669.43310686 -620.18541107 675.26694071 -626.02499504 681.097807 C-629.35424658 684.42229103 -632.68189208 687.74834053 -636.0051715 691.07879543 C-639.02872703 694.1088128 -642.0568492 697.13418699 -645.08867046 700.15593306 C-646.17748163 701.24273088 -647.26462495 702.33120288 -648.34987865 703.42155313 C-659.06940482 714.18783785 -667.31520411 721.46073081 -683 722.375 C-690.71092615 722.13497117 -696.88020645 719.11185001 -702.171875 713.515625 C-703.89540122 711.33629019 -705.48093954 709.13759254 -707 706.8125 C-707.99 705.3275 -707.99 705.3275 -709 703.8125 C-710.09940545 699.75533923 -710.23059343 695.75266782 -710.3125 691.5625 C-710.34988281 690.31984375 -710.38726563 689.0771875 -710.42578125 687.796875 C-709.76258837 677.06346791 -702.21512514 670.31745781 -695.00404739 663.190135 C-693.85128432 662.03245567 -692.69961844 660.87368296 -691.548949 659.71392265 C-688.38096045 656.52729056 -685.19759672 653.35641761 -682.01152051 650.1878841 C-678.54914557 646.73908854 -675.1012915 643.27582692 -671.65157008 639.81438285 C-665.60253574 633.74881958 -659.54424609 627.69262528 -653.47981644 621.64245605 C-644.46194056 612.64572774 -635.45838812 603.63476683 -626.4576414 594.6209058 C-610.38308989 578.52388057 -594.29431655 562.44112966 -578.19958446 546.36428496 C-564.11532778 532.29558469 -550.03592542 518.22204852 -535.9613266 504.14368629 C-535.02836483 503.21048772 -534.09540305 502.27728915 -533.13416971 501.31581183 C-529.34715259 497.52782594 -525.56016231 493.73981324 -521.77320778 489.95176479 C-511.18703817 479.3625665 -500.60001578 468.77422107 -490.01234055 458.18652821 C-489.53019892 457.70438532 -489.0480573 457.22224243 -488.55130533 456.72548915 C-473.18753344 441.36179738 -457.82002871 426.00184499 -442.44990921 410.64450359 C-441.95137354 410.14638161 -441.45283787 409.64825963 -440.93919506 409.13504304 C-432.84320318 401.04579479 -424.74700638 392.95675165 -416.65079544 384.86772265 C-384.53870647 352.78409258 -352.43788363 320.68923629 -320.34765625 288.58374023 C-318.31971688 286.55484143 -316.2917763 284.52594384 -314.26383534 282.49704661 C-313.51173364 281.74459021 -313.51173364 281.74459021 -312.74443797 280.97693268 C-307.19162322 275.42150511 -301.63876833 269.86611766 -296.08586502 264.31077862 C-295.58790467 263.81259845 -295.08994431 263.31441828 -294.57689425 262.80114174 C-279.23213857 247.44966388 -263.88488366 232.10068851 -248.534832 216.75450611 C-248.05298948 216.27278504 -247.57114695 215.79106398 -247.07470314 215.2947453 C-236.49773979 204.72051 -225.92010916 194.14694238 -215.34188278 183.5739706 C-212.02858026 180.26231241 -208.71529786 176.95063409 -205.40201923 173.63895199 C-203.51880836 171.75665051 -201.63559085 169.87435567 -199.75236665 167.99206752 C-185.67956098 153.9260634 -171.61149711 139.85532857 -157.54563141 125.78238487 C-141.55559434 109.78438955 -125.55833344 93.79365683 -109.55151895 77.81244745 C-100.58863541 68.86350988 -91.63129528 59.90910692 -82.681793 50.9467868 C-76.70832411 44.96587406 -70.72764986 38.99223256 -64.74098087 33.02453278 C-61.32689094 29.62085781 -57.91606407 26.21407715 -54.51390234 22.79847571 C-51.41982067 19.69230647 -48.31671755 16.59546024 -45.20610982 13.50584329 C-44.08847479 12.39253571 -42.97418466 11.27585769 -41.86365917 10.15545822 C-29.10770608 -2.70559719 -17.4642646 -6.91293807 0 0 Z " fill="#FFB636" transform="translate(1178,520.1875)"/>
<path d="M0 0 C10.3699438 5.96256154 20.00763292 13.12988033 29 21 C30.25490234 22.07314453 30.25490234 22.07314453 31.53515625 23.16796875 C54.81548613 43.49777769 73.44480047 70.94947571 77.390625 102.08203125 C77.88581021 114.16101325 73.09176853 125.24253305 65.10546875 134.1015625 C62.89707186 136.09280719 61.03402949 137.13758538 58.3125 138.3125 C57.34054688 138.7353125 56.36859375 139.158125 55.3671875 139.59375 C50.84175347 141.48372245 46.3058854 143.34753327 41.76416016 145.19799805 C35.57684912 147.73028555 29.47119002 150.42762509 23.37182617 153.16381836 C19.35421021 154.9632257 15.32730707 156.71365824 11.25 158.375 C5.51712901 160.73184696 -0.11252807 163.30064659 -5.75 165.875 C-18.9562706 171.90062422 -32.17095013 177.69968372 -45.68408203 183.00463867 C-52.07185774 185.5464592 -58.17198618 188.44531483 -64.25 191.65234375 C-70.22484816 194.58035883 -76.14391805 194.25340685 -82.6875 194.3125 C-83.73873047 194.34150391 -84.78996094 194.37050781 -85.87304688 194.40039062 C-98.02794327 194.49871897 -105.66914148 189.5588026 -114.5625 181.75 C-126.31011767 168.4962775 -127.05227399 157.46929679 -126.29882812 140.19726562 C-125.69330242 133.7185364 -123.32926373 128.57074822 -120 123 C-119.32207685 121.69327857 -118.6539095 120.38140222 -118 119.0625 C-117.68675781 118.45535156 -117.37351562 117.84820313 -117.05078125 117.22265625 C-115.62349781 114.20360688 -114.41026184 111.10572811 -113.1875 108 C-108.77793968 96.82153587 -103.88055388 85.88796707 -98.83959961 74.98193359 C-95.02231052 66.72121564 -91.3017534 58.52446879 -88.1640625 49.98046875 C-86.55079945 45.8498657 -84.6379049 41.87334265 -82.72998047 37.8737793 C-80.451294 33.06040884 -78.37831958 28.18381795 -76.375 23.25 C-73.73782209 16.75640596 -70.97422594 10.34797477 -68 4 C-67.505 2.865625 -67.01 1.73125 -66.5 0.5625 C-53.29079955 -22.00321744 -17.43043967 -8.96956514 0 0 Z " fill="#2B2622" transform="translate(126,1854)"/>
</svg>
